<?xml version="1.0" encoding="UTF-8"?>
<!DOCTYPE svg PUBLIC "-//W3C//DTD SVG 1.1//EN" "http://www.w3.org/Graphics/SVG/1.1/DTD/svg11.dtd">
<svg version="1.1" xmlns="http://www.w3.org/2000/svg" xmlns:xlink="http://www.w3.org/1999/xlink" x="0" y="0" width="413.457" height="484.48" viewBox="0, 0, 413.457, 484.48">
  <g id="Layer_1">
    <path d="M270,1.947 C241.869,11.042 219.168,43.393 218.655,75.119 C218.511,83.982 218.698,84.977 221.228,88.814 C222.728,91.089 226.097,94.205 228.714,95.739 C232.902,98.194 234.697,98.573 243.686,98.906 C252.758,99.242 264.596,97.688 270.642,95.368 C271.822,94.915 281.278,122.178 287.909,145.15 C295.731,172.25 298.741,194.929 297.034,213.895 C295.55,230.38 293.488,239.977 284.319,273.061 C279.443,290.655 278.093,294.295 278.015,290.061 C277.99,288.686 277.575,286.938 277.092,286.176 C275.866,284.24 274.01,287.849 273.97,292.245 C273.946,294.85 273.733,295.208 272.978,293.914 C272.327,292.8 272.484,290.94 273.464,288.164 C274.774,284.449 274.105,282.465 272.446,285.148 C271.531,286.629 270.47,285.276 269.043,280.811 C268.384,278.748 267.501,277.061 267.081,277.061 C266.66,277.061 265.755,278.935 265.069,281.225 C264.186,284.171 263.575,284.991 262.979,284.027 C262.476,283.214 262.21,285.178 262.318,288.895 C262.447,293.299 262.091,295.38 261.107,295.991 C259.98,296.691 260.427,298.167 263.441,303.709 L267.168,310.561 L262.584,305.869 C257.352,300.514 256.51,301.704 261.074,308.004 C262.764,310.338 263.889,312.505 263.574,312.821 C263.258,313.136 263,312.869 263,312.228 C263,310.875 260.85,311.095 259.749,312.561 C259.336,313.111 259.073,317.499 259.165,322.312 C259.256,327.125 258.991,331.4 258.576,331.812 C258.161,332.224 256.738,331.211 255.415,329.561 C252.196,325.546 252.221,327.887 255.5,337.656 C258.108,345.426 258.621,349.061 257.107,349.061 C255.844,349.061 255,346.457 255,342.561 C255,340.726 254.727,338.513 254.393,337.643 C252.576,332.908 250.312,339.911 251.854,345.496 C252.888,349.241 252.654,349.493 248.5,349.104 C247.4,349 246,348.273 245.39,347.488 C244.779,346.703 243.369,346.061 242.256,346.061 C240.189,346.061 239.04,343.67 239.014,339.311 C239.006,338.073 238.573,337.061 238.052,337.061 C237.457,337.061 237.453,336.036 238.041,334.311 C238.693,332.401 238.566,330.38 237.628,327.694 C236.366,324.081 236.185,323.95 234.877,325.694 C234.106,326.721 232.469,328.127 231.238,328.819 C229.11,330.016 229,329.908 229,326.635 C229,324.741 228.524,321.94 227.943,320.41 C227.096,318.183 226.7,317.921 225.958,319.095 C225.448,319.901 225.024,321.658 225.015,322.998 C225.003,324.881 223.614,323.403 218.908,316.498 C210.576,304.275 207.457,300.541 193.257,285.788 C168.211,259.769 144.983,223.202 138.8,200.061 C135.033,185.966 135.824,167.401 141.059,147.007 L141.972,143.452 L147.736,144.172 C150.906,144.568 155.767,144.93 158.538,144.977 C168.809,145.149 177.455,137.643 178.606,127.555 C179.314,121.359 175.109,108.06 168.174,94.561 C157.096,72.995 136.322,61.037 115.152,64.04 C100.745,66.083 90.04,71.789 78.536,83.556 C63.654,98.781 58.064,118.004 65.328,128.981 C70.087,136.172 82.006,141.061 94.777,141.061 C100.524,141.061 101.078,141.24 100.543,142.924 C98.384,149.727 96.84,161.763 96.357,175.561 C95.741,193.145 97.168,203.254 102.584,219.665 C111.214,245.813 134.939,282.448 162.349,311.948 C167.657,317.661 171.984,322.611 171.965,322.948 C171.945,323.285 171.334,324.634 170.607,325.946 C169.739,327.513 169.041,327.936 168.573,327.18 C168.182,326.547 167.481,326.264 167.016,326.551 C165.868,327.261 161.463,319.975 161.808,317.937 C162.119,316.099 159.39,314.621 158.461,316.124 C157.708,317.343 159.533,323.085 162.653,329.311 C163.963,331.923 164.732,334.061 164.363,334.061 C163.994,334.061 161.908,332.149 159.726,329.811 C156.762,326.637 155.933,326.13 156.447,327.811 C156.904,329.306 156.718,330.061 155.893,330.061 C155.199,330.061 155.688,331.164 157,332.561 C159.559,335.285 158.556,335.949 155.441,333.593 C154.374,332.785 152.52,332.11 151.323,332.093 C150.063,332.074 149.005,331.325 148.81,330.313 C148.462,328.504 144.987,327.89 143.862,329.439 C142.746,330.975 141.001,329.042 140.985,326.252 C140.967,322.965 138.99,318.881 137.118,318.263 C136.087,317.922 135.848,318.575 136.179,320.83 C136.49,322.947 136.254,323.712 135.391,323.381 C134.684,323.109 133.996,323.898 133.775,325.235 C133.422,327.372 133.26,327.276 131.777,324.061 C130.275,320.803 130.152,320.734 130.003,323.061 C129.914,324.436 129.615,324.999 129.338,324.311 C129.06,323.623 128.344,323.061 127.745,323.061 C127.147,323.061 125.757,322.274 124.657,321.311 C123.556,320.349 122.956,320.077 123.323,320.708 C123.69,321.338 123.703,323.948 123.352,326.508 L122.714,331.162 L119.857,328.424 C116.37,325.083 116.224,325.872 119.4,330.903 C121.688,334.527 121.715,334.758 119.975,335.845 C118.331,336.871 117.933,336.317 115.989,330.298 C114.8,326.621 113.172,322.475 112.369,321.086 C111.011,318.735 110.938,319.056 111.315,325.721 L111.72,332.882 L109.271,329.971 C106.945,327.207 104,326.064 104,327.926 C104,329.668 108.194,334.061 109.857,334.061 C110.798,334.061 112.341,335.368 113.284,336.965 C115.622,340.922 115.542,342.422 113.066,341.096 C105.555,337.076 112.235,343.75 120.704,348.727 C123.017,350.086 125.181,352.055 125.513,353.103 C126.211,355.302 130.659,359.061 132.563,359.061 C133.275,359.061 134.505,358.413 135.298,357.62 C136.8,356.118 141,356.572 141,358.237 C141,358.755 140.637,358.955 140.193,358.68 C139.749,358.406 137.387,359.325 134.943,360.723 C132.499,362.121 129.517,363.379 128.316,363.518 C127.115,363.657 124.718,364.962 122.99,366.416 C121.261,367.871 119.236,369.061 118.491,369.061 C117.745,369.061 116.849,369.961 116.5,371.061 C116.14,372.195 114.92,373.111 113.683,373.177 C111.991,373.267 111.894,373.396 113.25,373.75 C114.213,374.002 115,374.85 115,375.634 C115,376.553 116.069,377.061 118,377.061 C121.145,377.061 121.934,378.727 119.8,380.861 C118.37,382.291 118.607,382.321 122.516,381.2 C125.787,380.262 130.488,381.462 129.541,382.994 C129.218,383.517 125.702,384.27 121.727,384.668 C115.83,385.259 115.02,385.534 117.325,386.16 C119.719,386.811 142.318,389.061 146.461,389.061 C147.36,389.061 147.627,389.814 147.259,391.311 C146.954,392.549 147.065,393.229 147.506,392.824 C147.946,392.419 149.7,392.944 151.403,393.99 C153.107,395.037 156.163,396.201 158.195,396.578 C162.01,397.285 162.044,397.464 159.227,402.001 C159.077,402.242 158.26,401.449 157.411,400.237 C154.885,396.631 148.129,393.8 141,393.361 C132.494,392.838 129.61,394.289 129.192,399.301 C128.914,402.623 129.414,403.501 134.16,408.028 C138.567,412.231 139.08,413.061 137.272,413.061 C134.705,413.061 128,422.451 128,426.046 C128,428.971 133.862,434.53 138.591,436.091 C143.409,437.681 148.169,436.788 153.836,433.232 C156.401,431.622 159.732,430.018 161.237,429.667 C166.199,428.511 167.971,423.633 165.533,417.84 C164.847,416.211 164.989,416.211 168.154,417.84 C170.346,418.968 173.827,419.561 178.25,419.561 C183.797,419.561 185,419.849 185,421.176 C185,423.704 189.005,428.165 192.636,429.682 C196.513,431.302 203.099,431.467 207.985,430.065 C211.204,429.142 211.631,429.293 213.859,432.14 C215.18,433.828 217.401,435.643 218.794,436.173 C220.718,436.904 221.047,437.414 220.163,438.298 C218.556,439.905 218.705,445.195 220.425,447.651 C221.354,448.977 221.533,450.186 220.94,451.123 C219.462,453.459 219.871,462.988 221.606,466.644 C226.368,476.679 243.73,477.472 248.29,467.863 C249.813,464.654 250.276,464.394 254.489,464.394 C258.019,464.394 259.656,463.812 261.771,461.805 C263.827,459.854 265.185,459.35 267.279,459.76 C269.618,460.219 269.934,460.642 269.279,462.433 C267.977,465.991 268.562,474.368 270.352,477.802 C273.545,483.926 280.61,486.125 287.68,483.194 C295.22,480.069 296.03,467.558 289.157,460.395 L287.079,458.229 L289.92,457.239 C292.724,456.261 292.767,456.305 293.257,460.648 C293.854,465.949 297.553,471.146 302.345,473.42 C305.86,475.088 311.523,475.565 314.455,474.44 C316.991,473.467 319.168,468.274 318.856,463.944 C318.603,460.446 318.931,459.781 321.759,458.062 C325.444,455.821 326.771,451.941 325.24,447.885 C324.23,445.21 324.32,445.061 326.939,445.061 C331.2,445.061 336.297,441.077 337.893,436.499 L339.287,432.501 L342.227,435.441 C344.681,437.896 344.992,438.726 344.111,440.471 C340.508,447.601 343.91,457.593 351.964,463.534 C358.796,468.575 366.37,465.419 369.658,456.16 L371.344,451.415 L374.922,452.694 C380.798,454.795 385.458,454.388 388.923,451.472 C392.525,448.441 392.847,445.407 389.956,441.733 L387.913,439.135 L390.993,440.209 C392.688,440.799 397.212,441.105 401.048,440.888 C406.997,440.552 408.416,440.099 410.711,437.805 C415.878,432.637 413.557,424.988 405.406,420.327 C403.122,419.021 402.22,418.087 403.234,418.077 C404.188,418.068 406.416,416.768 408.184,415.188 C416.113,408.104 409.251,398.061 396.482,398.061 C390.718,398.061 386.492,400.21 384.436,404.186 C382.432,408.059 383.232,411.512 386.652,413.752 L389.272,415.469 L384.386,417.046 L379.5,418.624 L375.781,415.7 L372.062,412.776 L374.531,409.842 C377.22,406.646 377.915,400.376 375.813,398.274 C374.898,397.359 375.126,396.556 376.813,394.76 C379.635,391.756 379.718,385.878 376.993,382.051 C374.451,378.482 367.348,375.014 360.899,374.195 L355.908,373.561 L358.442,370.133 C361.106,366.529 361.133,364.876 358.492,367.067 C357.119,368.207 357.054,368.048 357.943,365.71 C359.241,362.297 358.253,362.371 353.15,366.067 C349.305,368.853 347.133,368.855 350.489,366.07 C351.308,365.39 351.763,364.486 351.5,364.061 C351.237,363.636 351.722,362.707 352.577,361.997 C354.121,360.716 357,355.806 357,354.456 C357,354.068 356.1,354.566 355,355.561 C352.519,357.807 352.517,357.243 354.981,348.627 C357.548,339.652 356.162,341.27 351.915,352.209 C350.068,356.965 347.756,361.357 346.778,361.967 C344.02,363.69 344.507,360.993 347.968,355.377 C349.601,352.728 351.673,348.761 352.573,346.561 L354.209,342.561 L351.576,345.012 C349.094,347.322 349.174,346.964 352.972,338.744 C355.218,333.882 357,328.495 357,326.568 C357,323.273 356.88,323.156 354.443,324.083 C352.98,324.639 352.128,324.663 352.452,324.139 C352.764,323.635 352.297,322.501 351.415,321.618 C349.943,320.147 349.48,320.356 345.789,324.159 C343.012,327.02 341.535,327.927 341.018,327.09 C340.278,325.892 337.046,329.535 335.722,333.061 C335.369,333.999 335.116,333.624 335.046,332.061 L334.933,329.561 L332.978,331.908 C331.902,333.199 330.491,336.124 329.842,338.408 C328.414,343.436 327,345.324 327,342.202 C327,340.96 326.582,340.201 326.071,340.517 C324.554,341.455 324.383,336.853 325.781,332.68 C326.495,330.546 328.578,326.946 330.409,324.68 C334.474,319.649 339.264,312.061 338.374,312.061 C337.378,312.061 328.858,320.061 325.626,324.031 L322.753,327.561 L323.212,321.776 C323.785,314.544 322.408,315.592 319.988,324.23 C318.72,328.76 318.012,330.063 317.501,328.811 C316.443,326.22 315.242,326.682 314.523,329.957 C314.173,331.55 313.07,333.593 312.071,334.497 C310.338,336.065 310.267,335.911 310.499,331.091 C310.765,325.54 314.251,319.414 319.243,315.723 C320.767,314.597 323.135,311.423 324.507,308.672 C329.307,299.039 326.596,298.994 320.436,308.604 C316.746,314.361 313.488,317.643 314.632,314.452 C315.005,313.412 315.751,311.992 316.29,311.297 C316.828,310.601 317.367,308.415 317.487,306.437 C317.651,303.74 318.491,302.228 320.853,300.379 C324.483,297.538 325.147,294.528 321.959,295.361 C320.238,295.812 320.027,295.555 320.612,293.728 C324.23,282.437 330.642,257.793 333.016,246.061 C342.193,200.697 338.908,169.87 318.065,105.749 C313.629,92.102 310,80.322 310,79.571 C310,77.324 322.746,73.129 341.887,69.077 C348.05,67.772 352.393,66.236 354.534,64.603 C364.065,57.333 364.472,40.217 355.282,33.116 C345.484,25.546 325.118,12.277 317.5,8.502 C301.061,0.354 282.744,-2.173 270,1.947 M266.015,288.811 C266.024,289.224 266.467,290.236 267,291.061 C267.784,292.274 267.972,292.13 267.985,290.311 C267.993,289.073 267.55,288.061 267,288.061 C266.45,288.061 266.007,288.398 266.015,288.811 M266.571,302.061 C266.93,303.436 267.624,304.989 268.112,305.511 C269.54,307.038 269.102,304.847 267.423,302.061 L265.917,299.561 L266.571,302.061 M126.031,326.561 C126.031,327.111 126.467,328.236 127,329.061 C127.533,329.886 127.969,330.111 127.969,329.561 C127.969,329.011 127.533,327.886 127,327.061 C126.467,326.236 126.031,326.011 126.031,326.561 M175.564,327.354 C175.94,328.34 176.499,328.895 176.807,328.587 C177.115,328.28 176.808,327.473 176.124,326.794 C175.136,325.814 175.022,325.929 175.564,327.354 M345.717,331.528 C344.433,334.222 344.374,334.855 345.448,334.443 C346.74,333.947 348.527,329.255 347.728,328.456 C347.525,328.252 346.62,329.635 345.717,331.528 M137,333.811 C137,334.288 137.653,335.552 138.45,336.62 C139.849,338.493 139.88,338.481 139.33,336.295 C138.761,334.038 137,332.16 137,333.811 M143.606,337.311 C144.92,344.993 149,348.694 149,342.204 C149,339.531 148.316,337.767 146.686,336.235 C143.545,333.285 142.953,333.492 143.606,337.311 M182.031,336.079 C182.05,337.541 183.078,339.3 184.531,340.358 C187.653,342.629 187.645,341.904 184.5,337.276 C182.17,333.847 182.002,333.765 182.031,336.079 M335.797,335.741 C334.029,336.207 332.418,339.582 332.865,341.885 C333.006,342.613 332.552,343.896 331.855,344.736 C331.158,345.576 330.503,346.837 330.4,347.538 C330.298,348.24 329.925,349.721 329.573,350.831 C328.949,352.798 329.022,352.807 332.55,351.208 C335.388,349.922 335.852,349.37 334.705,348.647 C333.425,347.839 333.43,347.279 334.752,344.143 C336.163,340.791 338.082,334.919 337.68,335.177 C337.581,335.241 336.734,335.495 335.797,335.741 M122.609,337.885 C122.256,338.456 122.455,339.224 123.05,339.592 C124.536,340.51 125.062,339.78 124.071,338.175 C123.539,337.316 123.024,337.213 122.609,337.885 M233.035,338.228 C233.055,338.961 233.735,340.686 234.546,342.061 L236.021,344.561 L235.76,341.138 C235.52,337.974 232.956,335.236 233.035,338.228 M309.228,342.785 C307.57,345.412 305.89,348.686 305.495,350.061 C304.849,352.304 305.206,352.15 308.967,348.561 C314.383,343.392 315.128,341.957 313.53,339.771 C312.36,338.172 311.964,338.45 309.228,342.785 M159,341.182 C160.375,341.728 162.625,343.24 164,344.541 C165.534,345.993 167.551,346.84 169.221,346.734 L171.942,346.561 L169.938,344.561 C168.23,342.856 167.799,342.778 167.021,344.033 C166.234,345.301 166.02,345.277 165.474,343.853 C165.125,342.944 163.459,341.719 161.771,341.131 C157.93,339.792 155.611,339.834 159,341.182 M152.928,345.193 C153.243,347.506 154.131,349.608 154.902,349.864 C156.001,350.228 156.158,349.602 155.629,346.958 C155.259,345.105 154.37,343.003 153.656,342.288 C152.589,341.222 152.459,341.743 152.928,345.193 M125.5,343.061 C125.84,343.611 126.568,344.061 127.118,344.061 C127.668,344.061 127.84,343.611 127.5,343.061 C127.16,342.511 126.432,342.061 125.882,342.061 C125.332,342.061 125.16,342.511 125.5,343.061 M123.5,345.061 C123.16,345.611 123.359,346.061 123.941,346.061 C124.523,346.061 125,345.611 125,345.061 C125,344.511 124.802,344.061 124.559,344.061 C124.316,344.061 123.84,344.511 123.5,345.061 M320.2,345.261 C319.54,345.921 319,346.864 319,347.357 C319,347.849 318.032,349.611 316.849,351.272 L314.699,354.292 L316.794,353.171 C319.279,351.841 319.88,350.965 321.009,347.028 C321.963,343.702 321.899,343.562 320.2,345.261 M183,346.061 C183,346.611 183.477,347.061 184.059,347.061 C184.641,347.061 184.84,346.611 184.5,346.061 C184.16,345.511 183.684,345.061 183.441,345.061 C183.198,345.061 183,345.511 183,346.061 M325.731,347.981 C325.296,349.644 325.426,350.035 326.168,349.293 C326.75,348.711 327.028,347.646 326.788,346.924 C326.538,346.175 326.085,346.629 325.731,347.981 M77,348.101 C77,348.701 77.466,350.063 78.035,351.127 C79.489,353.843 77.738,353.635 73.2,350.551 C69.56,348.078 67.635,348.711 70.028,351.595 C71.071,352.851 70.475,353.073 65.872,353.142 L60.5,353.223 L64.5,355.116 C66.7,356.157 69.686,357.02 71.135,357.035 C72.585,357.049 75.074,357.624 76.667,358.311 L79.564,359.561 L75.282,361.663 C72.053,363.249 71,363.433 71,362.413 C71,360.525 67.347,360.716 66.607,362.643 C66.273,363.513 66,364.385 66,364.582 C66,364.778 67.974,365.234 70.386,365.596 C75.006,366.289 77.796,365.361 81.661,361.846 C82.849,360.764 84.649,360.088 85.661,360.343 C87.121,360.711 86.831,361.083 84.25,362.153 C80.277,363.799 80.064,365.05 83.75,365.093 C86.268,365.122 86.35,365.238 84.727,366.47 C83.063,367.732 83.094,367.853 85.227,368.425 C90.694,369.889 95.606,369.09 99.572,366.089 C104.375,362.454 105.558,362.279 103.437,365.517 C102.552,366.868 102.094,368.404 102.42,368.932 C102.746,369.459 102.479,370.068 101.826,370.286 C99.709,370.991 101.812,374.343 104.012,373.768 C105.526,373.372 106,373.745 106,375.329 C106,377.365 106.054,377.359 108.5,375.061 C112.209,371.576 111.714,369.427 107.325,369.969 C106.679,370.049 105.865,369.652 105.516,369.088 C105.167,368.523 105.568,368.061 106.406,368.061 C107.244,368.061 108.395,367.191 108.965,366.127 C110.63,363.016 110.234,361.859 107.75,362.576 C105.814,363.135 105.919,362.879 108.5,360.739 C111.845,357.964 113.414,358.181 112.43,361.281 C111.847,363.12 112.077,363.259 114.639,362.619 C118.046,361.769 120.708,359.526 122.56,355.946 C123.697,353.747 123.698,353.03 122.565,351.481 C121.475,349.99 120.934,349.871 119.741,350.861 C118.561,351.84 118.014,351.782 117.01,350.573 C115.298,348.51 114.257,348.675 113.477,351.134 C112.897,352.96 112.621,353.038 111.159,351.786 C107.735,348.854 106.648,348.609 107.249,350.905 C108.077,354.072 105.772,353.597 103.158,350.061 C100.309,346.208 97.617,345.924 99.025,349.626 C100.446,353.364 100.328,353.413 96.656,350.612 C92.627,347.539 91.659,347.411 92.5,350.061 C92.986,351.593 92.68,352.061 91.19,352.061 C90.12,352.061 88.725,351.435 88.09,350.669 C86.679,348.969 83,347.893 83,349.18 C83,349.693 81.65,349.414 80,348.561 C78.113,347.585 77,347.415 77,348.101 M172,349.561 C172,350.386 172.436,351.061 172.969,351.061 C173.501,351.061 173.678,350.386 173.362,349.561 C173.045,348.736 172.609,348.061 172.393,348.061 C172.177,348.061 172,348.736 172,349.561 M165.015,350.311 C165.024,350.999 165.467,352.236 166,353.061 C166.755,354.23 166.973,353.954 166.985,351.811 C166.993,350.299 166.55,349.061 166,349.061 C165.45,349.061 165.007,349.624 165.015,350.311 M187.643,352.363 C185.986,354.069 185.949,354.438 187.297,355.786 C189.043,357.532 191.007,356.715 190.985,354.252 C190.956,351.116 189.599,350.349 187.643,352.363 M338.629,350.852 C338.045,351.798 333,365.118 333,365.715 C333,365.944 333.9,365.65 335,365.061 C336.415,364.304 337,362.967 337,360.494 C337,358.57 337.652,355.436 338.449,353.529 C339.76,350.392 339.863,348.856 338.629,350.852 M323.168,354.01 C322.583,355.688 322.317,357.061 322.577,357.061 C323.252,357.061 325.139,351.866 324.644,351.371 C324.417,351.144 323.753,352.332 323.168,354.01 M146.472,355.759 C146.745,358.247 146.661,358.318 145.428,356.632 C144.186,354.933 144.103,354.988 144.294,357.375 C144.407,358.793 144.1,359.938 143.612,359.921 C142.713,359.89 141.043,362.01 141.015,363.217 C140.987,364.44 144.86,362.873 146.59,360.961 C148.658,358.677 150,358.519 150,360.561 C150,361.386 150.459,362.061 151.02,362.061 C152.118,362.061 148.641,354.575 147.102,353.624 C146.592,353.309 146.309,354.27 146.472,355.759 M115,356.022 C115,357.143 115.423,358.061 115.941,358.061 C117.597,358.061 117.834,356.602 116.395,355.272 C115.236,354.2 115,354.327 115,356.022 M152.75,356.495 C153.988,357.419 155.007,358.936 155.015,359.868 C155.028,361.258 155.192,361.307 155.93,360.14 C156.7,358.924 157.178,358.947 159.247,360.303 C160.596,361.187 162.217,361.545 162.916,361.113 C163.864,360.527 163.781,360.191 162.573,359.728 C161.696,359.391 160.697,359.142 160.351,359.174 C160.006,359.206 159.353,358.631 158.899,357.896 C158.446,357.162 157.271,356.498 156.288,356.42 C155.304,356.343 153.6,355.95 152.5,355.547 C150.766,354.912 150.799,355.038 152.75,356.495 M63.25,356.792 C62.563,357.031 62,357.896 62,358.714 C62,360.451 66.131,360.206 66.714,358.434 C67.142,357.132 65.08,356.153 63.25,356.792 M104,356.963 C103.175,357.426 100.828,358.105 98.785,358.472 C96.742,358.838 94.853,359.49 94.587,359.919 C93.95,360.951 105.215,358.611 107.624,357.211 C109.429,356.163 109.424,356.122 107.5,356.122 C106.4,356.122 104.825,356.5 104,356.963 M122.254,360.164 C118.208,362.167 117.408,364.061 120.609,364.061 C123.145,364.061 128,361.088 128,359.535 C128,357.591 127.296,357.668 122.254,360.164 M324.18,360.345 C323.504,361.158 323.454,362.165 324.042,363.095 C324.552,363.901 324.976,365.629 324.985,366.933 C324.996,368.749 325.301,369.056 326.282,368.242 C327.075,367.583 327.416,365.631 327.177,363.119 C326.774,358.896 325.987,358.167 324.18,360.345 M149,367.03 C149,367.562 149.675,367.739 150.5,367.423 C151.325,367.106 152,366.67 152,366.454 C152,366.238 151.325,366.061 150.5,366.061 C149.675,366.061 149,366.497 149,367.03 M136.62,373.121 C133.936,375.838 132.222,378.061 132.811,378.061 C133.4,378.061 134.16,377.611 134.5,377.061 C134.84,376.511 135.807,376.061 136.649,376.061 C138.752,376.061 145.952,370.851 145.979,369.311 C146.027,366.477 141.271,368.413 136.62,373.121 M332.25,368.723 C330.82,369.3 330.551,371.061 331.893,371.061 C332.384,371.061 333.045,370.386 333.362,369.561 C333.678,368.736 333.839,368.097 333.719,368.14 C333.598,368.183 332.938,368.446 332.25,368.723 M151.569,370.984 C149.66,373.094 150.377,373.742 152.872,372.161 C153.626,371.683 154.065,370.756 153.846,370.1 C153.59,369.33 152.784,369.643 151.569,370.984 M337.104,373.975 C336.271,374.503 335.98,375.566 336.382,376.614 C337.013,378.258 337.145,378.249 338.496,376.464 C340.872,373.324 340.156,372.043 337.104,373.975 M307.251,377.175 C305.464,378.32 304.253,379.662 304.56,380.158 C305.505,381.687 306.534,381.182 308.842,378.061 C311.467,374.511 311.437,374.494 307.251,377.175 M155.629,378.584 C155.153,379.827 155.409,379.912 157.023,379.049 C159.341,377.808 159.56,377.061 157.607,377.061 C156.841,377.061 155.951,377.746 155.629,378.584 M176,384.867 C176,389.239 173.265,393.525 169.768,394.635 C167.783,395.265 167.898,395.432 171.044,396.499 C173.774,397.426 174.914,397.398 176.473,396.366 C180.499,393.702 187.764,395.12 191.027,399.208 C192.477,401.024 192.69,400.845 195.233,395.659 L197.912,390.197 L195.206,390.379 C193.718,390.479 191.631,391.635 190.57,392.948 L188.64,395.334 L186.911,393.199 C185.96,392.025 183.734,390.906 181.964,390.712 C178.277,390.308 176.554,387.975 177.413,384.55 C177.74,383.248 177.556,381.904 177.004,381.563 C176.397,381.188 176,382.496 176,384.867 M135.5,384.061 C136.6,384.534 138.625,384.92 140,384.92 C142.279,384.92 142.323,384.844 140.5,384.061 C139.4,383.588 137.375,383.202 136,383.202 C133.721,383.202 133.677,383.278 135.5,384.061 M275.61,388.635 C275.265,389.534 274.406,390.047 273.7,389.776 C272.122,389.17 269.602,390.959 268.719,393.311 C267.899,395.497 268.806,395.547 271.13,393.443 C272.114,392.553 274.254,391.541 275.886,391.193 C278.525,390.631 278.709,390.364 277.545,388.782 C276.359,387.168 276.178,387.155 275.61,388.635 M306.207,392.101 C305.534,393.179 305.376,394.061 305.855,394.061 C306.335,394.061 307.914,395.247 309.364,396.697 C314.687,402.021 311.872,410.137 304.166,411.678 C301.134,412.284 301.031,412.438 302.541,414.107 C303.793,415.489 305.355,415.815 309.517,415.561 C312.466,415.381 315.829,414.933 316.989,414.565 C319.465,413.779 324,416.378 324,418.584 C324,419.599 325.071,420.061 327.423,420.061 C331.24,420.061 336.455,423.769 337.567,427.274 C338.156,429.129 338.411,428.906 339.576,425.518 C341.067,421.18 344.133,418.316 348.25,417.414 C349.762,417.082 350.976,416.53 350.946,416.186 C350.917,415.842 348.444,414.398 345.452,412.976 C340.214,410.488 339.949,410.459 338.368,412.207 C335.873,414.964 330.798,415.534 326.578,413.531 C321.141,410.951 318.516,406.627 318.418,400.089 L318.336,394.616 L314.468,393.813 C312.341,393.371 309.887,392.364 309.016,391.575 C307.628,390.319 307.279,390.384 306.207,392.101 M201.437,394.215 C199.107,396.717 198.914,397.217 200.5,396.63 C201.6,396.224 203.977,395.643 205.782,395.34 C208.913,394.814 208.986,394.703 207.377,392.925 C205.152,390.466 204.872,390.527 201.437,394.215 M238.534,400.006 C238.175,400.586 236.896,401.075 235.691,401.093 C234.486,401.11 232.626,401.785 231.559,402.593 C229.7,403.999 229.734,404.061 232.359,404.061 C238.768,404.061 242.894,408.605 241.779,414.437 L241.332,416.775 L244.806,414.418 C246.716,413.122 248.691,412.061 249.195,412.061 C249.699,412.061 248.943,411.049 247.515,409.811 C246.087,408.573 244.305,405.761 243.555,403.561 C242.216,399.629 239.817,397.93 238.534,400.006 M193.543,402.992 C193.226,403.504 193.425,404.205 193.984,404.551 C194.543,404.896 195,404.477 195,403.62 C195,401.863 194.4,401.605 193.543,402.992 M217.036,403.994 C216.304,405.362 216.752,405.542 220.089,405.224 C224.751,404.779 225.223,403.468 220.947,402.84 C218.829,402.529 217.63,402.883 217.036,403.994 M271,408.185 C269.625,409.206 266.109,410.49 263.186,411.038 C255.53,412.472 253.115,414.138 259.795,413.376 C267.788,412.464 273,416.411 273,423.376 C273,429.492 264.378,435.002 254.75,435.039 L249,435.061 L249.001,438.811 C249.002,442.249 249.358,442.728 253.283,444.561 L257.565,446.561 L261.28,444.561 C263.446,443.395 264.996,441.811 264.997,440.761 C265.005,435.845 268.387,432.637 275.75,430.561 C277.6,430.039 278,429.219 278,425.948 C278,421.089 281.485,417.065 285.705,417.053 C287.688,417.048 288.829,416.337 289.631,414.606 C290.865,411.943 291.222,412.127 281.851,410.602 C279.845,410.276 277.145,409.18 275.851,408.168 C273.567,406.38 273.429,406.381 271,408.185 M32.388,407.761 C31.226,407.983 28.988,409.508 27.413,411.151 C25.228,413.432 24.532,415.142 24.471,418.378 C24.39,422.732 23.536,425.061 22.023,425.061 C21.55,425.061 18.791,423.036 15.891,420.561 C12.992,418.086 9.821,416.061 8.845,416.061 C6,416.061 0,421.931 0,424.714 C0,431.409 4.808,435.053 16.343,437.1 C23.132,438.305 23.219,438.292 27.343,435.438 C30.833,433.022 32.325,432.609 36.645,432.86 L41.79,433.158 L40.672,436.12 C39.64,438.853 39.832,439.359 43.152,442.68 C47.413,446.94 54.735,448.497 57.775,445.789 C58.745,444.925 61.917,444.101 65.023,443.906 C69.655,443.617 70.937,443.924 72.962,445.811 C74.29,447.049 75.947,448.061 76.644,448.061 C77.341,448.061 79.569,449.186 81.595,450.561 C87.621,454.65 97.804,453.411 103.295,447.92 C105.77,445.445 106.156,444.41 105.686,441.515 C105.174,438.358 105.338,438.061 107.595,438.061 C113.765,438.061 120,432.786 120,427.565 C120,424.807 115.364,421.061 111.95,421.061 C110.222,421.061 107.564,420.326 106.042,419.427 C103.987,418.213 102.103,417.968 98.716,418.476 C92.764,419.369 82.282,426.042 81.829,429.228 C81.397,432.262 78,433.035 78,430.099 C78,423.048 68.4,418.057 60.565,421.036 C58.25,421.917 58,421.776 58,419.592 C58,418.261 56.934,415.933 55.631,414.418 C53.69,412.162 52.365,411.635 48.316,411.506 C45.595,411.42 42.274,410.656 40.935,409.809 C37.919,407.902 35.14,407.236 32.388,407.761 M158.319,410.921 C157.348,412.477 157.677,412.951 160.67,414.308 C163.908,415.775 164.051,415.77 162.716,414.223 C161.926,413.309 160.868,411.785 160.365,410.837 C159.505,409.217 159.381,409.222 158.319,410.921 M370.75,430.777 C369.238,431.006 368.001,431.726 368.003,432.377 C368.005,433.155 370.037,433.561 373.932,433.561 C379.514,433.561 379.767,433.459 378.275,431.811 C376.7,430.072 376.021,429.979 370.75,430.777" fill="#F52887" id="path2"/>
  </g>
</svg>
