<?xml version="1.0" standalone="no"?>
<!DOCTYPE svg PUBLIC "-//W3C//DTD SVG 20010904//EN"
 "http://www.w3.org/TR/2001/REC-SVG-20010904/DTD/svg10.dtd">
<svg version="1.0" xmlns="http://www.w3.org/2000/svg"
 width="540.000000pt" height="528.000000pt" viewBox="0 0 540.000000 528.000000"
 preserveAspectRatio="xMidYMid meet">
<metadata>
Created by potrace 1.16, written by Peter Selinger 2001-2019
</metadata>
<g transform="translate(0.000000,528.000000) scale(0.100000,-0.100000)"
fill="#000000" stroke="none">
<path d="M1595 5220 c-10 -11 -23 -20 -29 -20 -6 0 -34 -23 -63 -52 -51 -51
-54 -52 -120 -56 -69 -5 -76 -8 -157 -74 -19 -16 -38 -28 -43 -28 -6 0 -18 -9
-28 -20 -10 -11 -28 -20 -40 -20 -14 0 -41 -21 -76 -60 -80 -88 -119 -136
-119 -147 0 -6 -9 -18 -20 -28 -14 -13 -20 -31 -20 -60 0 -43 -3 -50 -87 -159
-24 -30 -43 -64 -43 -76 0 -11 -4 -20 -10 -20 -6 0 -10 -36 -10 -89 0 -50 5
-93 10 -96 6 -3 10 -14 10 -23 0 -9 9 -28 20 -42 11 -14 20 -31 20 -38 0 -6
25 -48 55 -92 30 -44 55 -86 55 -93 0 -33 134 -186 223 -253 31 -24 61 -44 66
-44 5 0 15 -7 22 -16 7 -9 55 -47 106 -85 101 -75 119 -104 88 -139 -27 -30
-117 -25 -187 11 -25 13 -595 12 -603 -1 -3 -5 -16 -10 -29 -10 -13 0 -31 -9
-41 -20 -10 -11 -28 -20 -40 -20 -12 0 -30 -9 -40 -20 -10 -11 -25 -20 -33
-20 -18 0 -71 -38 -131 -94 -43 -41 -121 -139 -121 -152 0 -14 -50 -113 -60
-119 -6 -3 -10 -17 -10 -29 0 -13 -7 -29 -16 -37 -13 -11 -15 -36 -13 -158 2
-148 -3 -190 -27 -226 -21 -30 -20 -428 1 -445 8 -7 15 -22 15 -34 0 -13 11
-33 25 -46 14 -13 25 -28 25 -34 0 -5 33 -44 73 -86 39 -42 83 -93 97 -114 14
-20 33 -48 43 -61 21 -28 117 -95 137 -95 7 0 21 -7 30 -15 31 -28 132 -85
151 -85 10 0 21 -5 24 -10 3 -6 17 -10 31 -10 13 0 24 -4 24 -10 0 -12 362
-14 376 -2 18 16 91 34 111 28 12 -4 25 -1 33 9 7 8 23 15 36 15 12 0 26 5 30
11 3 6 15 9 25 6 10 -3 23 1 30 9 6 8 22 14 35 14 12 0 26 5 29 10 4 6 15 8
25 5 10 -3 20 0 23 9 3 8 27 17 56 21 27 4 55 13 62 21 6 8 22 14 34 14 12 0
28 7 35 15 7 8 20 15 29 15 9 0 27 9 41 20 14 11 32 20 41 20 9 0 24 9 34 20
10 11 27 20 37 20 11 0 31 8 44 19 35 28 91 36 110 16 24 -24 10 -58 -49 -124
-64 -73 -85 -102 -119 -169 -15 -29 -55 -83 -89 -120 -34 -37 -70 -86 -79
-108 -10 -23 -23 -45 -29 -48 -6 -4 -11 -15 -11 -25 0 -10 -9 -30 -20 -44 -11
-14 -20 -32 -20 -40 0 -8 -9 -26 -20 -40 -11 -14 -20 -34 -20 -45 0 -10 -9
-27 -20 -37 -11 -10 -20 -29 -20 -42 0 -12 -4 -23 -10 -23 -12 0 -13 -124 -1
-148 5 -9 14 -28 20 -42 6 -14 27 -45 46 -70 45 -58 80 -107 106 -147 11 -17
35 -41 54 -52 43 -25 70 -66 67 -103 -2 -22 8 -43 40 -80 50 -60 139 -128 168
-128 11 0 20 -4 20 -10 0 -5 8 -10 18 -10 17 0 79 -20 97 -31 6 -4 29 -10 53
-14 23 -4 49 -13 56 -21 19 -18 95 -18 120 1 11 8 26 15 35 15 8 0 22 6 30 13
33 27 90 36 230 35 90 0 147 4 154 11 6 6 20 11 32 11 12 0 25 4 31 8 5 5 29
15 54 22 25 8 56 22 69 32 13 10 30 18 38 18 22 0 64 34 180 145 111 106 150
156 172 220 7 22 25 56 40 75 14 19 26 43 27 52 1 9 13 39 28 67 29 56 32 79
14 128 -10 27 -10 38 0 53 7 11 12 28 12 39 0 10 7 25 16 32 13 11 15 26 11
71 -4 46 -2 60 12 72 10 9 22 16 28 16 6 0 34 -29 62 -65 28 -35 77 -83 108
-107 32 -23 78 -60 103 -83 69 -63 118 -96 156 -106 19 -6 34 -14 34 -20 0 -5
17 -10 38 -9 55 1 103 -11 109 -26 4 -11 33 -14 129 -14 74 0 124 4 124 10 0
5 17 18 38 29 20 11 84 67 142 126 96 98 174 164 246 207 16 10 56 36 89 58
33 22 74 49 91 60 35 23 84 93 84 120 0 10 16 41 35 70 19 29 35 60 35 70 0
11 5 22 10 25 6 3 10 16 10 28 0 12 9 33 20 47 11 14 20 33 20 42 0 9 4 19 9
22 5 3 12 26 15 51 4 25 13 50 20 57 7 7 16 42 19 77 4 36 14 72 22 81 21 23
22 212 1 229 -8 7 -17 34 -21 62 -4 27 -11 49 -15 49 -17 0 -30 75 -30 167 0
50 -4 95 -10 98 -5 3 -10 14 -10 24 0 43 -160 214 -192 204 -13 -4 -75 26
-105 51 -22 18 -43 25 -93 29 -75 5 -111 13 -119 26 -3 5 -27 12 -53 16 -26 4
-53 13 -59 21 -9 11 -57 14 -243 14 -230 0 -233 0 -254 23 -50 53 -23 102 98
183 36 24 76 51 90 61 14 9 92 82 173 162 168 165 279 315 292 392 4 24 10 49
14 54 4 6 14 30 21 55 7 25 17 50 22 56 5 7 9 162 9 345 l0 334 -35 30 c-19
17 -53 44 -76 60 -22 17 -56 42 -74 58 -19 15 -40 27 -48 27 -9 0 -27 9 -41
20 -14 11 -32 20 -40 20 -8 0 -20 7 -27 15 -7 8 -20 15 -30 15 -9 0 -29 9 -43
20 -14 11 -34 20 -45 20 -10 0 -27 9 -37 20 -10 11 -26 20 -35 20 -10 0 -29 9
-43 20 -14 11 -31 20 -39 20 -7 0 -24 9 -38 20 -14 11 -29 20 -33 20 -5 0 -34
22 -65 49 -45 39 -67 51 -105 56 -26 4 -50 11 -53 16 -7 12 -178 11 -190 -1
-5 -5 -36 -12 -69 -16 -59 -7 -63 -9 -215 -111 -72 -48 -167 -153 -225 -249
-11 -19 -28 -43 -37 -54 -10 -11 -18 -30 -18 -41 0 -22 -30 -79 -61 -114 -9
-11 -20 -39 -24 -62 -4 -23 -15 -53 -26 -67 -10 -13 -19 -33 -19 -43 0 -10 -5
-24 -11 -30 -7 -7 -12 -42 -13 -80 -1 -55 -4 -68 -18 -71 -17 -3 -36 29 -59
103 -13 43 -20 64 -37 107 -7 15 -9 35 -6 43 4 8 0 22 -7 31 -17 21 -35 52
-49 84 -5 14 -15 32 -20 40 -6 8 -13 22 -16 30 -3 8 -10 23 -15 32 -5 10 -9
25 -9 34 0 9 -9 27 -20 41 -11 14 -20 31 -20 38 0 7 -13 29 -30 50 -16 21 -30
44 -30 52 0 8 -12 31 -27 51 -37 51 -235 252 -249 252 -6 0 -21 11 -34 24 -12
14 -35 28 -51 31 -16 4 -31 11 -34 16 -4 5 -152 9 -354 9 -335 0 -349 -1 -366
-20z m1946 -834 c-12 -20 -21 -43 -21 -51 0 -8 -9 -30 -20 -50 -11 -20 -20
-43 -20 -53 0 -14 -64 -272 -91 -367 -4 -16 -22 -84 -39 -150 -17 -66 -36
-135 -41 -152 -23 -82 -30 -115 -49 -223 -11 -63 -27 -144 -34 -180 -8 -36
-14 -72 -15 -80 0 -8 -4 -30 -7 -47 -9 -47 16 -43 39 5 10 20 29 52 43 71 13
19 27 46 31 60 3 14 16 37 28 51 24 28 55 86 55 105 0 7 6 15 14 18 8 3 26 32
41 64 15 32 35 67 45 78 10 11 19 25 21 30 4 11 113 178 190 292 27 40 49 76
49 81 0 5 9 17 20 27 11 10 20 25 20 34 0 9 9 22 20 29 11 7 20 17 20 23 0 6
14 30 30 54 17 24 30 48 30 53 0 6 7 12 15 16 8 3 15 13 15 23 0 17 117 143
132 143 19 0 4 -35 -46 -105 -30 -42 -83 -120 -118 -176 -34 -55 -71 -112 -80
-127 -10 -15 -25 -40 -34 -57 -13 -25 -78 -133 -132 -220 -6 -11 -23 -41 -37
-67 -13 -26 -29 -49 -34 -52 -5 -4 -16 -19 -24 -34 -32 -61 -72 -130 -104
-179 -18 -28 -33 -55 -33 -59 0 -4 -6 -15 -14 -23 -8 -9 -28 -41 -44 -71 -16
-30 -44 -81 -61 -113 -28 -49 -30 -58 -16 -63 15 -6 92 39 140 83 11 10 33 26
48 36 16 10 36 25 45 33 25 22 96 76 137 104 21 14 47 34 58 45 12 11 36 29
53 40 18 11 85 65 149 120 65 55 138 117 164 138 25 21 85 76 133 123 82 79
108 97 108 74 0 -29 -249 -289 -332 -346 -21 -15 -38 -30 -38 -35 0 -5 -12
-15 -27 -23 -16 -8 -37 -23 -48 -33 -22 -20 -81 -66 -125 -98 -205 -148 -380
-289 -380 -305 0 -11 1 -20 3 -20 14 1 118 46 212 91 34 16 68 29 77 29 8 0
26 8 39 18 13 10 39 24 58 32 18 7 45 23 60 35 14 12 45 30 69 40 23 11 42 22
42 26 0 8 57 39 71 39 4 0 28 14 52 30 51 34 57 36 57 16 0 -12 -79 -72 -137
-104 -13 -8 -27 -20 -30 -28 -3 -8 -13 -14 -23 -14 -11 0 -22 -4 -25 -10 -3
-5 -32 -26 -63 -47 -31 -20 -60 -41 -63 -45 -5 -8 -141 -68 -214 -94 -22 -8
-51 -24 -65 -34 l-25 -20 30 -25 c17 -14 37 -25 46 -25 9 0 28 -9 43 -21 25
-19 34 -20 179 -14 83 3 233 7 332 10 99 2 198 9 220 15 22 6 74 9 115 6 90
-5 80 -3 80 -21 0 -15 -44 -21 -111 -16 -14 1 -45 -7 -70 -17 -33 -14 -51 -17
-69 -10 -14 5 -70 7 -125 4 -236 -14 -492 -36 -591 -52 -33 -5 -56 0 -113 25
-89 38 -132 39 -234 6 -42 -13 -93 -27 -112 -31 -49 -9 -44 -27 13 -47 38 -13
67 -15 157 -9 185 12 351 7 435 -12 14 -3 48 -8 75 -11 28 -3 75 -9 105 -14
30 -5 59 -6 63 -4 4 3 13 0 20 -5 7 -6 35 -13 62 -16 54 -6 134 -19 230 -36
33 -6 85 -15 115 -20 181 -31 260 -50 260 -62 0 -5 9 -8 20 -8 11 0 20 -4 20
-10 0 -5 18 -14 40 -20 42 -11 74 -36 65 -51 -9 -13 -53 -11 -83 5 -59 30
-194 75 -227 76 -52 0 -191 16 -201 22 -6 4 -36 8 -65 9 -30 1 -58 5 -64 9 -5
4 -30 10 -55 13 -25 3 -74 11 -110 17 -101 17 -191 30 -240 35 -25 2 -83 8
-130 14 -124 13 -214 10 -218 -9 -2 -10 11 -19 38 -28 23 -7 59 -25 82 -40 22
-15 49 -32 59 -38 11 -6 27 -18 36 -26 10 -8 26 -18 36 -21 9 -4 17 -11 17
-16 0 -5 14 -17 30 -25 17 -9 44 -23 60 -32 17 -8 30 -20 30 -25 0 -5 6 -9 14
-9 7 0 30 -13 51 -30 21 -17 41 -30 46 -30 4 0 28 -13 52 -30 25 -16 48 -30
51 -30 4 0 12 -5 19 -10 23 -20 121 -80 131 -80 5 0 18 -8 28 -17 30 -27 83
-57 228 -129 74 -37 154 -80 177 -96 23 -15 46 -28 52 -28 6 0 11 -4 11 -10 0
-5 -3 -10 -6 -10 -16 0 -124 34 -161 51 -24 10 -47 19 -52 19 -19 0 -285 142
-314 168 -9 8 -26 20 -36 26 -65 37 -214 130 -236 149 -5 4 -23 17 -40 27 -77
50 -80 52 -120 83 -29 23 -105 72 -175 115 -61 37 -193 102 -207 102 -7 0 -13
-3 -13 -8 0 -4 42 -48 94 -99 52 -50 103 -104 113 -120 10 -15 52 -72 93 -126
41 -54 84 -111 95 -125 11 -15 39 -52 63 -82 23 -30 52 -68 64 -85 13 -16 48
-61 78 -100 30 -38 72 -92 93 -120 20 -27 56 -72 80 -98 23 -27 66 -76 95
-110 82 -96 104 -119 160 -165 29 -24 52 -47 52 -53 0 -51 -214 130 -361 306
-46 54 -90 106 -97 115 -7 8 -42 53 -78 100 -36 46 -71 89 -78 95 -7 5 -21 24
-31 40 -10 17 -29 41 -42 55 -37 38 -103 120 -103 128 0 16 -81 92 -98 92 -10
0 -23 -10 -29 -22 -9 -19 3 -49 72 -188 45 -91 103 -208 129 -260 26 -52 56
-112 66 -133 11 -22 20 -45 20 -52 0 -7 3 -15 8 -17 4 -2 33 -56 65 -120 39
-78 68 -124 88 -138 28 -21 39 -50 19 -50 -6 0 -29 18 -53 39 -38 35 -61 71
-134 210 -12 24 -35 64 -51 90 -77 125 -188 334 -261 496 -118 258 -162 325
-212 325 -58 0 -92 96 -49 135 11 10 20 24 20 31 0 16 -67 74 -86 74 -8 0 -31
8 -52 19 -23 12 -49 17 -70 14 -27 -5 -32 -9 -31 -32 1 -14 -6 -39 -15 -56
-20 -38 -21 -114 -1 -143 11 -15 14 -33 9 -59 -8 -49 -30 -73 -65 -73 -19 0
-30 -6 -34 -20 -7 -23 10 -50 32 -50 26 0 25 -30 -6 -95 -17 -36 -31 -69 -31
-73 0 -9 -47 -95 -76 -140 -27 -41 -109 -103 -127 -96 -9 3 -27 -13 -51 -44
-20 -27 -36 -52 -36 -56 0 -3 -17 -31 -38 -63 -155 -233 -202 -305 -202 -312
0 -4 -9 -16 -20 -26 -11 -10 -20 -22 -20 -26 0 -4 -13 -28 -30 -52 -16 -25
-30 -49 -30 -55 0 -6 -4 -12 -9 -14 -5 -1 -18 -19 -30 -38 -11 -19 -30 -51
-41 -70 -76 -128 -108 -175 -121 -175 -24 0 -10 42 47 134 30 49 54 92 54 95
0 4 15 29 34 57 19 27 38 60 42 72 4 12 17 35 30 50 13 16 24 34 24 41 0 7 14
30 30 51 17 21 30 43 30 50 0 6 9 20 20 30 11 10 20 22 20 27 0 5 11 24 25 42
14 18 25 39 25 46 0 8 10 24 21 36 24 26 39 50 69 110 11 23 26 44 34 47 12 5
14 20 9 77 l-6 70 134 129 c109 105 132 131 121 142 -20 21 -95 -57 -485 -501
-51 -57 -123 -139 -162 -181 -38 -43 -104 -116 -145 -164 -129 -150 -152 -175
-161 -175 -23 0 -4 43 46 100 30 35 55 69 55 76 0 6 11 19 25 28 14 9 34 34
45 55 11 22 34 49 51 62 17 12 51 49 75 82 25 33 65 78 89 99 25 22 57 60 71
84 14 24 30 44 35 44 5 0 27 24 50 52 62 80 150 177 297 328 120 124 132 139
132 172 0 20 -4 40 -10 43 -5 3 -10 15 -10 26 0 27 -40 79 -61 79 -10 0 -30
-10 -45 -23 -24 -21 -25 -24 -10 -39 22 -22 20 -54 -4 -78 -19 -19 -23 -19
-49 -6 -16 9 -31 13 -34 9 -4 -3 -18 2 -31 11 -32 20 -60 21 -76 1 -10 -13
-10 -19 4 -33 36 -41 8 -132 -41 -132 -16 0 -71 -33 -230 -136 -42 -28 -202
-112 -243 -128 -8 -4 -28 -15 -45 -26 -47 -30 -90 -48 -94 -38 -4 12 27 36 58
44 13 4 35 19 50 34 14 14 42 34 62 43 20 9 42 23 49 32 7 8 17 15 23 15 12 0
136 77 152 95 6 6 36 27 67 48 67 44 86 71 67 93 -10 12 -24 14 -57 9 -25 -4
-52 -10 -61 -15 -17 -8 -56 -24 -156 -61 -82 -30 -107 -40 -128 -51 -10 -5
-55 -22 -100 -38 -147 -51 -172 -61 -181 -71 -6 -5 -19 -9 -31 -9 -12 0 -30
-7 -41 -15 -10 -8 -25 -15 -32 -15 -8 0 -28 -6 -45 -14 -30 -14 -46 -17 -142
-31 -22 -4 -49 -11 -60 -16 -11 -5 -56 -9 -100 -7 -63 2 -80 6 -80 18 0 11 17
17 70 21 83 7 146 19 160 29 6 4 28 11 49 14 21 4 49 14 61 22 12 8 24 11 28
8 4 -4 18 1 31 10 14 9 30 16 37 16 11 0 24 5 121 49 26 11 53 21 60 21 7 0
32 9 56 20 80 38 127 58 147 63 11 3 36 11 55 18 34 12 48 18 140 57 25 11 53
22 63 25 21 8 22 40 2 57 -20 17 -19 33 5 55 15 14 28 16 67 10 26 -4 61 -14
77 -22 29 -15 31 -14 50 9 12 14 26 34 32 44 9 16 23 19 80 19 103 1 211 55
202 101 -7 35 -32 39 -130 20 -98 -20 -161 -42 -207 -76 -24 -16 -50 -21 -152
-25 -116 -5 -212 -12 -449 -35 -52 -6 -144 -12 -205 -16 -60 -3 -116 -9 -125
-14 -8 -4 -62 -8 -119 -8 -58 -1 -109 -6 -115 -12 -5 -5 -25 -10 -44 -10 -18
0 -41 -4 -50 -9 -9 -5 -43 -12 -74 -15 -49 -6 -58 -5 -58 8 0 9 12 19 28 22
15 4 32 10 37 14 6 4 30 10 54 14 24 4 53 11 64 17 11 6 41 13 68 14 27 2 56
8 66 13 9 6 50 8 90 5 43 -4 89 -1 115 6 24 7 86 14 138 16 131 5 339 22 372
30 15 4 38 17 50 29 46 45 107 65 223 75 92 7 113 6 133 -7 20 -13 28 -13 44
-3 12 7 32 10 49 6 31 -7 64 9 53 26 -3 5 -19 9 -36 9 -28 0 -54 6 -123 30
-21 7 -115 54 -198 98 l-47 26 -39 -38 c-44 -43 -68 -44 -122 -5 -15 10 -34
19 -42 19 -9 0 -19 5 -22 10 -3 6 -26 10 -50 10 -24 0 -70 7 -101 15 -31 8
-61 12 -66 9 -5 -3 -21 -1 -36 5 -15 6 -45 13 -67 16 -22 3 -69 9 -105 15 -36
5 -109 12 -163 16 -54 4 -100 11 -103 15 -3 5 -56 9 -119 9 -111 0 -147 10
-114 31 19 12 206 11 214 -1 4 -6 62 -10 140 -10 78 0 136 -4 140 -10 3 -5 24
-10 45 -10 22 0 61 -4 87 -9 26 -5 82 -14 123 -20 41 -7 92 -17 113 -23 27 -8
44 -8 61 0 21 9 23 16 22 70 -2 58 -16 92 -40 92 -6 0 -45 13 -86 29 -41 16
-95 34 -120 41 -25 7 -72 20 -105 30 -33 10 -94 28 -135 40 -41 12 -95 28
-119 36 -25 8 -55 14 -68 14 -13 0 -31 4 -41 9 -9 5 -25 12 -34 15 -10 3 -18
13 -18 22 0 18 22 16 110 -6 25 -6 57 -12 72 -13 14 -1 30 -5 34 -9 4 -5 19
-8 32 -8 14 0 39 -4 56 -9 17 -5 51 -15 76 -21 25 -7 53 -16 62 -21 10 -5 27
-9 37 -9 11 0 23 -4 26 -10 3 -5 17 -10 31 -10 13 0 24 -4 24 -10 0 -5 11 -10
24 -10 14 0 28 -4 31 -10 3 -5 17 -10 30 -10 13 0 27 -5 30 -11 4 -6 13 -8 20
-5 7 2 21 -1 31 -8 11 -7 26 -13 34 -14 23 -1 109 -32 162 -58 27 -13 54 -24
60 -24 7 0 35 -11 62 -25 45 -22 76 -24 76 -5 0 5 -4 12 -10 15 -17 11 -11 48
13 73 25 27 28 23 -63 77 -28 17 -70 42 -93 56 -44 27 -108 65 -186 111 -25
15 -65 36 -88 48 -23 11 -45 25 -48 30 -3 5 -23 17 -43 27 -20 9 -92 54 -160
100 -68 46 -129 83 -137 83 -7 0 -15 7 -18 14 -3 8 -19 22 -36 30 -27 15 -142
127 -149 147 -7 19 22 8 58 -23 21 -18 55 -44 75 -58 20 -14 46 -35 58 -47 11
-13 28 -23 38 -23 9 0 19 -7 23 -15 3 -8 14 -15 25 -15 11 0 25 -9 31 -20 6
-11 19 -20 29 -20 10 0 26 -9 36 -20 10 -11 23 -20 30 -20 7 0 20 -9 30 -20
10 -11 24 -20 30 -20 7 0 30 -12 51 -27 21 -14 68 -42 103 -61 36 -18 79 -44
95 -57 17 -12 43 -25 58 -29 14 -3 39 -17 55 -30 15 -13 46 -31 68 -40 22 -9
49 -25 60 -36 11 -10 43 -28 70 -40 59 -25 115 -76 115 -104 0 -22 37 -66 56
-66 16 0 57 -49 73 -87 23 -56 211 -156 211 -113 0 6 -17 38 -38 73 -27 45
-42 87 -55 152 -24 121 -47 195 -61 195 -6 -1 -27 -14 -46 -30 -56 -49 -85
-41 -186 47 -84 73 -288 247 -374 318 -88 72 -185 155 -341 291 -30 27 -84 74
-120 104 -110 93 -199 210 -159 210 5 0 24 -18 41 -40 28 -34 136 -126 299
-255 21 -16 71 -57 110 -90 92 -76 148 -123 252 -207 137 -112 242 -202 316
-273 52 -51 61 -53 87 -25 12 14 25 17 46 13 31 -6 88 30 88 57 0 8 -18 42
-39 75 -22 33 -51 81 -65 108 -14 26 -29 47 -34 47 -5 0 -12 13 -16 29 -3 16
-15 37 -26 47 -10 9 -19 21 -19 27 0 5 -13 29 -30 54 -16 24 -30 48 -30 52 0
4 -9 16 -20 26 -11 10 -20 22 -20 26 0 8 -69 113 -108 165 -12 16 -25 34 -29
39 -5 6 -24 30 -44 55 -43 54 -63 89 -55 98 8 7 156 -138 156 -154 0 -6 11
-21 25 -34 14 -13 25 -29 25 -35 0 -7 9 -20 20 -30 11 -10 20 -23 20 -30 0 -7
9 -20 20 -30 11 -10 20 -22 20 -27 0 -6 9 -22 20 -36 61 -80 90 -124 90 -136
0 -7 7 -19 16 -27 8 -7 25 -30 37 -52 45 -80 53 -93 72 -122 12 -16 27 -43 35
-60 23 -49 71 -95 99 -95 27 -1 61 -21 61 -36 0 -4 -12 -20 -26 -35 -30 -31
-27 -39 20 -67 27 -16 37 -18 45 -8 10 11 3 58 -16 106 -3 8 -7 22 -8 30 -4
31 -57 237 -75 290 -9 30 -30 96 -44 145 -15 50 -32 101 -38 115 -6 14 -11 31
-9 37 1 7 -5 23 -13 35 -7 13 -26 59 -41 103 -14 44 -31 88 -36 97 -5 10 -9
30 -9 44 0 23 2 25 15 14 9 -7 22 -29 31 -49 9 -20 29 -63 45 -97 16 -33 29
-66 29 -73 0 -7 13 -38 30 -69 16 -31 42 -97 57 -147 14 -49 30 -94 35 -100 4
-5 8 -24 8 -41 0 -18 5 -36 10 -39 6 -3 10 -21 10 -40 0 -19 5 -37 10 -40 6
-3 10 -24 10 -45 0 -21 5 -42 10 -45 6 -3 10 -21 10 -40 0 -19 5 -37 10 -40 6
-4 8 -14 6 -23 -3 -10 1 -30 9 -46 8 -15 15 -37 15 -47 0 -31 17 -21 22 13 7
45 2 178 -11 283 -21 170 -30 240 -41 305 -6 36 -13 92 -16 125 -3 33 -10 65
-16 72 -6 7 -7 24 -4 38 4 14 0 40 -7 57 -13 32 -15 64 -3 75 10 10 38 -7 33
-20 -3 -7 1 -21 8 -30 7 -10 11 -26 8 -36 -3 -11 0 -29 7 -41 6 -12 14 -42 16
-68 3 -25 9 -51 14 -58 6 -6 8 -18 5 -26 -3 -8 1 -34 9 -58 8 -24 13 -47 10
-51 -2 -4 0 -34 6 -66 6 -32 10 -81 10 -110 -1 -28 4 -54 10 -58 6 -4 10 -90
10 -249 l0 -243 53 -59 c29 -32 56 -66 60 -74 4 -8 11 -22 16 -30 5 -8 15 -30
22 -48 15 -42 47 -82 64 -82 25 0 29 40 6 64 -12 12 -21 36 -21 52 0 16 -16
61 -36 99 l-36 69 6 255 c8 343 16 484 27 496 5 5 9 39 9 76 0 69 6 84 29 70
9 -6 11 -37 7 -127 -14 -284 -17 -597 -7 -607 16 -16 21 -5 22 57 1 31 6 59
10 62 5 3 9 25 9 49 0 24 5 47 10 50 6 3 10 26 10 50 0 24 5 47 10 50 6 3 10
17 10 30 0 13 5 27 10 30 6 3 10 17 10 30 0 13 5 37 11 52 6 15 15 37 20 48 4
11 10 34 13 50 16 100 40 190 62 242 8 17 14 35 13 40 -5 20 16 84 50 151 11
24 21 52 21 62 0 11 5 22 10 25 6 3 10 15 10 27 0 11 8 32 19 46 10 15 22 38
26 52 4 14 17 36 29 48 l21 24 3 -25 c2 -13 -6 -41 -17 -61z m-1493 -181 c13
-28 1 -33 -22 -9 -20 19 -21 34 -3 34 8 0 19 -11 25 -25z m1117 -194 c3 -5 1
-12 -5 -16 -5 -3 -10 1 -10 9 0 18 6 21 15 7z m-2059 -722 c10 -17 -13 -36
-27 -22 -12 12 -4 33 11 33 5 0 12 -5 16 -11z m1995 -950 c5 -8 15 -32 25 -54
9 -22 20 -49 24 -60 5 -11 23 -63 40 -115 18 -52 35 -99 40 -105 4 -5 8 -17 8
-25 1 -8 12 -69 26 -135 13 -66 27 -142 31 -170 8 -61 21 -148 34 -235 5 -35
7 -68 4 -73 -2 -4 0 -14 7 -21 6 -9 10 -45 8 -93 -2 -61 -6 -78 -18 -78 -11 0
-17 16 -22 55 -4 30 -12 82 -18 115 -5 33 -15 92 -21 130 -13 93 -26 173 -34
210 -3 17 -11 56 -17 88 -6 32 -15 60 -19 63 -5 3 -9 18 -9 34 0 16 -4 39 -9
52 -5 13 -16 55 -25 93 -18 80 -47 155 -59 155 -5 0 -6 -35 -2 -77 7 -99 19
-469 18 -588 -1 -49 -5 -155 -9 -235 -7 -118 -12 -145 -24 -145 -13 0 -15 46
-17 348 -1 199 -6 355 -12 365 -5 10 -10 67 -10 126 0 63 -4 113 -10 119 -6 6
-11 28 -11 48 0 21 -5 41 -11 45 -6 3 -9 14 -6 23 2 9 0 45 -4 81 -4 35 -6 67
-4 70 8 12 99 3 106 -11z m-133 -33 c2 -10 -1 -28 -6 -40 -6 -11 -13 -55 -16
-96 -7 -82 -19 -163 -35 -225 -38 -148 -51 -206 -62 -265 -5 -30 -14 -63 -19
-72 -6 -10 -10 -31 -10 -47 0 -17 -4 -32 -9 -35 -5 -3 -11 -20 -14 -38 -3 -18
-11 -53 -17 -78 -6 -25 -14 -60 -17 -78 -3 -18 -9 -35 -14 -38 -5 -3 -9 -15
-9 -26 0 -23 -17 -81 -31 -110 -5 -10 -9 -29 -9 -42 0 -14 -4 -27 -9 -30 -5
-4 -12 -29 -16 -56 -4 -27 -11 -52 -16 -56 -5 -3 -9 -18 -9 -33 0 -28 -34 -70
-47 -58 -11 11 41 215 68 269 5 10 9 29 9 42 0 14 4 27 9 30 5 3 11 18 14 33
3 16 10 46 16 68 6 22 15 59 21 83 5 23 15 61 21 85 6 23 12 56 15 72 12 86
18 112 31 132 8 12 12 27 8 33 -4 6 1 22 10 36 9 14 14 33 11 41 -4 9 0 26 9
39 8 13 12 30 9 39 -4 8 -2 21 4 28 5 6 13 30 16 52 10 58 25 160 36 235 16
113 21 131 39 128 8 -2 17 -12 19 -22z m-1218 -486 c0 -5 -2 -10 -4 -10 -3 0
-8 5 -11 10 -3 6 -1 10 4 10 6 0 11 -4 11 -10z"/>
<path d="M2674 3156 c-3 -8 -1 -23 5 -35 6 -11 11 -33 11 -48 0 -16 29 -85 64
-153 58 -113 67 -125 93 -128 19 -2 35 4 48 18 17 19 17 21 2 38 -10 10 -17
28 -17 39 0 11 -25 47 -55 80 -30 34 -55 68 -55 76 0 7 -9 22 -21 33 -12 10
-30 36 -40 57 -21 40 -27 44 -35 23z"/>
<path d="M2104 2928 c-8 -12 42 -58 62 -58 6 0 17 -6 23 -14 7 -8 27 -18 44
-21 18 -4 47 -16 65 -26 18 -10 41 -19 51 -19 9 0 21 -4 26 -8 6 -5 37 -14 70
-21 33 -7 70 -17 83 -22 30 -12 32 -11 32 4 0 20 -30 44 -65 53 -16 4 -48 17
-70 30 -23 12 -58 25 -78 29 -20 4 -40 11 -43 16 -3 5 -13 9 -23 9 -10 0 -51
14 -91 30 -84 35 -77 33 -86 18z"/>
<path d="M2955 2740 c-25 -28 -9 -45 29 -30 18 6 26 16 24 27 -5 26 -31 27
-53 3z"/>
</g>
</svg>
