<?xml version="1.0" encoding="UTF-8" standalone="no"?>
<svg
   width="413.4574"
   height="484.47952"
   viewBox="0 0 413.4574 484.47952"
   version="1.1"
   id="svg4"
   xmlns="http://www.w3.org/2000/svg"
   xmlns:svg="http://www.w3.org/2000/svg">
  <defs
     id="defs8" />
  <path
     d="m 270,1.9469615 c -28.131,9.0949995 -50.832,41.4459995 -51.345,73.1719995 -0.144,8.863 0.043,9.858 2.573,13.695 1.5,2.275 4.869,5.391 7.486,6.925 4.188,2.455 5.983,2.834 14.972,3.167 9.072,0.336 20.91,-1.218 26.956,-3.538 1.18,-0.453 10.636,26.809999 17.267,49.781999 7.822,27.1 10.832,49.779 9.125,68.745 -1.484,16.485 -3.546,26.082 -12.715,59.166 -4.876,17.594 -6.226,21.234 -6.304,17 -0.025,-1.375 -0.44,-3.123 -0.923,-3.885 -1.226,-1.936 -3.082,1.673 -3.122,6.069 -0.024,2.605 -0.237,2.963 -0.992,1.669 -0.651,-1.114 -0.494,-2.974 0.486,-5.75 1.31,-3.715 0.641,-5.699 -1.018,-3.016 -0.915,1.481 -1.976,0.128 -3.403,-4.337 -0.659,-2.063 -1.542,-3.75 -1.962,-3.75 -0.421,0 -1.326,1.874 -2.012,4.164 -0.883,2.946 -1.494,3.766 -2.09,2.802 -0.503,-0.813 -0.769,1.151 -0.661,4.868 0.129,4.404 -0.227,6.485 -1.211,7.096 -1.127,0.7 -0.68,2.176 2.334,7.718 l 3.727,6.852 -4.584,-4.692 c -5.232,-5.355 -6.074,-4.165 -1.51,2.135 1.69,2.334 2.815,4.501 2.5,4.817 -0.316,0.315 -0.574,0.048 -0.574,-0.593 0,-1.353 -2.15,-1.133 -3.251,0.333 -0.413,0.55 -0.676,4.938 -0.584,9.751 0.091,4.813 -0.174,9.088 -0.589,9.5 -0.415,0.412 -1.838,-0.601 -3.161,-2.251 -3.219,-4.015 -3.194,-1.674 0.085,8.095 2.608,7.77 3.121,11.405 1.607,11.405 -1.263,0 -2.107,-2.604 -2.107,-6.5 0,-1.835 -0.273,-4.048 -0.607,-4.918 -1.817,-4.735 -4.081,2.268 -2.539,7.853 1.034,3.745 0.8,3.997 -3.354,3.608 -1.1,-0.104 -2.5,-0.831 -3.11,-1.616 -0.611,-0.785 -2.021,-1.427 -3.134,-1.427 -2.067,0 -3.216,-2.391 -3.242,-6.75 -0.008,-1.238 -0.441,-2.25 -0.962,-2.25 -0.595,0 -0.599,-1.025 -0.011,-2.75 0.652,-1.91 0.525,-3.931 -0.413,-6.617 -1.262,-3.613 -1.443,-3.744 -2.751,-2 -0.771,1.027 -2.408,2.433 -3.639,3.125 -2.128,1.197 -2.238,1.089 -2.238,-2.184 0,-1.894 -0.476,-4.695 -1.057,-6.225 -0.847,-2.227 -1.243,-2.489 -1.985,-1.315 -0.51,0.806 -0.934,2.563 -0.943,3.903 -0.012,1.883 -1.401,0.405 -6.107,-6.5 -8.332,-12.223 -11.451,-15.957 -25.651,-30.71 -25.046,-26.019 -48.274,-62.586 -54.457,-85.727 -3.767,-14.095 -2.976,-32.66 2.259,-53.054 l 0.913,-3.555 5.764,0.72 c 3.17,0.396 8.031,0.758 10.802,0.805 10.271,0.172 18.917,-7.334 20.068,-17.422 0.708,-6.196 -3.497,-19.495 -10.432,-32.993999 -11.078,-21.566 -31.852,-33.524 -53.022,-30.521 -14.407,2.043 -25.112,7.749 -36.616,19.516 -14.882,15.225 -20.472,34.447999 -13.208,45.424999 4.759,7.191 16.678,12.08 29.449,12.08 5.747,0 6.301,0.179 5.766,1.863 -2.159,6.803 -3.703,18.839 -4.186,32.637 -0.616,17.584 0.811,27.693 6.227,44.104 8.63,26.148 32.355,62.783 59.765,92.283 5.308,5.713 9.635,10.663 9.616,11 -0.02,0.337 -0.631,1.686 -1.358,2.998 -0.868,1.567 -1.566,1.99 -2.034,1.234 -0.391,-0.633 -1.092,-0.916 -1.557,-0.629 -1.148,0.71 -5.553,-6.576 -5.208,-8.614 0.311,-1.838 -2.418,-3.316 -3.347,-1.813 -0.753,1.219 1.072,6.961 4.192,13.187 1.31,2.612 2.079,4.75 1.71,4.75 -0.369,0 -2.455,-1.912 -4.637,-4.25 -2.964,-3.174 -3.793,-3.681 -3.279,-2 0.457,1.495 0.271,2.25 -0.554,2.25 -0.694,0 -0.205,1.103 1.107,2.5 2.559,2.724 1.556,3.388 -1.559,1.032 -1.067,-0.808 -2.921,-1.483 -4.118,-1.5 -1.26,-0.019 -2.318,-0.768 -2.513,-1.78 -0.348,-1.809 -3.823,-2.423 -4.948,-0.874 -1.116,1.536 -2.861,-0.397 -2.877,-3.187 -0.018,-3.287 -1.995,-7.371 -3.867,-7.989 -1.031,-0.341 -1.27,0.312 -0.939,2.567 0.311,2.117 0.075,2.882 -0.788,2.551 -0.707,-0.272 -1.395,0.517 -1.616,1.854 -0.353,2.137 -0.515,2.041 -1.998,-1.174 -1.502,-3.258 -1.625,-3.327 -1.774,-1 -0.089,1.375 -0.388,1.938 -0.665,1.25 -0.278,-0.688 -0.994,-1.25 -1.593,-1.25 -0.598,0 -1.988,-0.787 -3.088,-1.75 -1.101,-0.962 -1.701,-1.234 -1.334,-0.603 0.367,0.63 0.38,3.24 0.029,5.8 l -0.638,4.654 -2.857,-2.738 c -3.487,-3.341 -3.633,-2.552 -0.457,2.479 2.288,3.624 2.315,3.855 0.575,4.942 -1.644,1.026 -2.042,0.472 -3.986,-5.547 -1.189,-3.677 -2.817,-7.823 -3.62,-9.212 -1.358,-2.351 -1.431,-2.03 -1.054,4.635 l 0.405,7.161 -2.449,-2.911 c -2.326,-2.764 -5.271,-3.907 -5.271,-2.045 0,1.742 4.194,6.135 5.857,6.135 0.941,0 2.484,1.307 3.427,2.904 2.338,3.957 2.258,5.457 -0.218,4.131 -7.511,-4.02 -0.831,2.654 7.638,7.631 2.313,1.359 4.477,3.328 4.809,4.376 0.698,2.199 5.146,5.958 7.05,5.958 0.712,0 1.942,-0.648 2.735,-1.441 1.502,-1.502 5.702,-1.048 5.702,0.617 0,0.518 -0.363,0.718 -0.807,0.443 -0.444,-0.274 -2.806,0.645 -5.25,2.043 -2.444,1.398 -5.426,2.656 -6.627,2.795 -1.201,0.139 -3.598,1.444 -5.326,2.898 -1.729,1.455 -3.754,2.645 -4.499,2.645 -0.746,0 -1.642,0.9 -1.991,2 -0.36,1.134 -1.58,2.05 -2.817,2.116 -1.692,0.09 -1.789,0.219 -0.433,0.573 0.963,0.252 1.75,1.1 1.75,1.884 0,0.919 1.069,1.427 3,1.427 3.145,0 3.934,1.666 1.8,3.8 -1.43,1.43 -1.193,1.46 2.716,0.339 3.271,-0.938 7.972,0.262 7.025,1.794 -0.323,0.523 -3.839,1.276 -7.814,1.674 -5.897,0.591 -6.707,0.866 -4.402,1.492 2.394,0.651 24.993,2.901 29.136,2.901 0.899,0 1.166,0.753 0.798,2.25 -0.305,1.238 -0.194,1.918 0.247,1.513 0.44,-0.405 2.194,0.12 3.897,1.166 1.704,1.047 4.76,2.211 6.792,2.588 3.815,0.707 3.849,0.886 1.032,5.423 -0.15,0.241 -0.967,-0.552 -1.816,-1.764 -2.526,-3.606 -9.282,-6.437 -16.411,-6.876 -8.506,-0.523 -11.39,0.928 -11.808,5.94 -0.278,3.322 0.222,4.2 4.968,8.727 4.407,4.203 4.92,5.033 3.112,5.033 -2.567,0 -9.272,9.39 -9.272,12.985 0,2.925 5.862,8.484 10.591,10.045 4.818,1.59 9.578,0.697 15.245,-2.859 2.565,-1.61 5.896,-3.214 7.401,-3.565 4.962,-1.156 6.734,-6.034 4.296,-11.827 -0.686,-1.629 -0.544,-1.629 2.621,0 2.192,1.128 5.673,1.721 10.096,1.721 5.547,0 6.75,0.288 6.75,1.615 0,2.528 4.005,6.989 7.636,8.506 3.877,1.62 10.463,1.785 15.349,0.383 3.219,-0.923 3.646,-0.772 5.874,2.075 1.321,1.688 3.542,3.503 4.935,4.033 1.924,0.731 2.253,1.241 1.369,2.125 -1.607,1.607 -1.458,6.897 0.262,9.353 0.929,1.326 1.108,2.535 0.515,3.472 -1.478,2.336 -1.069,11.865 0.666,15.521 4.762,10.035 22.124,10.828 26.684,1.219 1.523,-3.209 1.986,-3.469 6.199,-3.469 3.53,0 5.167,-0.582 7.282,-2.589 2.056,-1.951 3.414,-2.455 5.508,-2.045 2.339,0.459 2.655,0.882 2,2.673 -1.302,3.558 -0.717,11.935 1.073,15.369 3.193,6.124 10.258,8.323 17.328,5.392 7.54,-3.125 8.35,-15.636 1.477,-22.799 l -2.078,-2.166 2.841,-0.99 c 2.804,-0.978 2.847,-0.934 3.337,3.409 0.597,5.301 4.296,10.498 9.088,12.772 3.515,1.668 9.178,2.145 12.11,1.02 2.536,-0.973 4.713,-6.166 4.401,-10.496 -0.253,-3.498 0.075,-4.163 2.903,-5.882 3.685,-2.241 5.012,-6.121 3.481,-10.177 -1.01,-2.675 -0.92,-2.824 1.699,-2.824 4.261,0 9.358,-3.984 10.954,-8.562 l 1.394,-3.998 2.94,2.94 c 2.454,2.455 2.765,3.285 1.884,5.03 -3.603,7.13 -0.201,17.122 7.853,23.063 6.832,5.041 14.406,1.885 17.694,-7.374 l 1.686,-4.745 3.578,1.279 c 5.876,2.101 10.536,1.694 14.001,-1.222 3.602,-3.031 3.924,-6.065 1.033,-9.739 l -2.043,-2.598 3.08,1.074 c 1.695,0.59 6.219,0.896 10.055,0.679 5.949,-0.336 7.368,-0.789 9.663,-3.083 5.167,-5.168 2.846,-12.817 -5.305,-17.478 -2.284,-1.306 -3.186,-2.24 -2.172,-2.25 0.954,-0.009 3.182,-1.309 4.95,-2.889 7.929,-7.084 1.067,-17.127 -11.702,-17.127 -5.764,0 -9.99,2.149 -12.046,6.125 -2.004,3.873 -1.204,7.326 2.216,9.566 l 2.62,1.717 -4.886,1.577 -4.886,1.578 -3.719,-2.924 -3.719,-2.924 2.469,-2.934 c 2.689,-3.196 3.384,-9.466 1.282,-11.568 -0.915,-0.915 -0.687,-1.718 1,-3.514 2.822,-3.004 2.905,-8.882 0.18,-12.709 -2.542,-3.569 -9.645,-7.037 -16.094,-7.856 l -4.991,-0.634 2.534,-3.428 c 2.664,-3.604 2.691,-5.257 0.05,-3.066 -1.373,1.14 -1.438,0.981 -0.549,-1.357 1.298,-3.413 0.31,-3.339 -4.793,0.357 -3.845,2.786 -6.017,2.788 -2.661,0.003 0.819,-0.68 1.274,-1.584 1.011,-2.009 -0.263,-0.425 0.222,-1.354 1.077,-2.064 1.544,-1.281 4.423,-6.191 4.423,-7.541 0,-0.388 -0.9,0.11 -2,1.105 -2.481,2.246 -2.483,1.682 -0.019,-6.934 2.567,-8.975 1.181,-7.357 -3.066,3.582 -1.847,4.756 -4.159,9.148 -5.137,9.758 -2.758,1.723 -2.271,-0.974 1.19,-6.59 1.633,-2.649 3.705,-6.616 4.605,-8.816 l 1.636,-4 -2.633,2.451 c -2.482,2.31 -2.402,1.952 1.396,-6.268 2.246,-4.862 4.028,-10.249 4.028,-12.176 0,-3.295 -0.12,-3.412 -2.557,-2.485 -1.463,0.556 -2.315,0.58 -1.991,0.056 0.312,-0.504 -0.155,-1.638 -1.037,-2.521 -1.472,-1.471 -1.935,-1.262 -5.626,2.541 -2.777,2.861 -4.254,3.768 -4.771,2.931 -0.74,-1.198 -3.972,2.445 -5.296,5.971 -0.353,0.938 -0.606,0.563 -0.676,-1 l -0.113,-2.5 -1.955,2.347 c -1.076,1.291 -2.487,4.216 -3.136,6.5 -1.428,5.028 -2.842,6.916 -2.842,3.794 0,-1.242 -0.418,-2.001 -0.929,-1.685 -1.517,0.938 -1.688,-3.664 -0.29,-7.837 0.714,-2.134 2.797,-5.734 4.628,-8 4.065,-5.031 8.855,-12.619 7.965,-12.619 -0.996,0 -9.516,8 -12.748,11.97 l -2.873,3.53 0.459,-5.785 c 0.573,-7.232 -0.804,-6.184 -3.224,2.454 -1.268,4.53 -1.976,5.833 -2.487,4.581 -1.058,-2.591 -2.259,-2.129 -2.978,1.146 -0.35,1.593 -1.453,3.636 -2.452,4.54 -1.733,1.568 -1.804,1.414 -1.572,-3.406 0.266,-5.551 3.752,-11.677 8.744,-15.368 1.524,-1.126 3.892,-4.3 5.264,-7.051 4.8,-9.633 2.089,-9.678 -4.071,-0.068 -3.69,5.757 -6.948,9.039 -5.804,5.848 0.373,-1.04 1.119,-2.46 1.658,-3.155 0.538,-0.696 1.077,-2.882 1.197,-4.86 0.164,-2.697 1.004,-4.209 3.366,-6.058 3.63,-2.841 4.294,-5.851 1.106,-5.018 -1.721,0.451 -1.932,0.194 -1.347,-1.633 3.618,-11.291 10.03,-35.935 12.404,-47.667 9.177,-45.364 5.892,-76.191 -14.951,-140.312 C 313.629,92.101961 310,80.321961 310,79.570961 c 0,-2.247 12.746,-6.442 31.887,-10.494 6.163,-1.305 10.506,-2.841 12.647,-4.474 9.531,-7.27 9.938,-24.386 0.748,-31.487 -9.798,-7.57 -30.164,-20.839 -37.782,-24.6139995 -16.439,-8.148 -34.756,-10.675 -47.5,-6.555 M 266.015,288.81096 c 0.009,0.413 0.452,1.425 0.985,2.25 0.784,1.213 0.972,1.069 0.985,-0.75 0.008,-1.238 -0.435,-2.25 -0.985,-2.25 -0.55,0 -0.993,0.337 -0.985,0.75 m 0.556,13.25 c 0.359,1.375 1.053,2.928 1.541,3.45 1.428,1.527 0.99,-0.664 -0.689,-3.45 l -1.506,-2.5 0.654,2.5 m -140.54,24.5 c 0,0.55 0.436,1.675 0.969,2.5 0.533,0.825 0.969,1.05 0.969,0.5 0,-0.55 -0.436,-1.675 -0.969,-2.5 -0.533,-0.825 -0.969,-1.05 -0.969,-0.5 m 49.533,0.793 c 0.376,0.986 0.935,1.541 1.243,1.233 0.308,-0.307 0.001,-1.114 -0.683,-1.793 -0.988,-0.98 -1.102,-0.865 -0.56,0.56 m 170.153,4.174 c -1.284,2.694 -1.343,3.327 -0.269,2.915 1.292,-0.496 3.079,-5.188 2.28,-5.987 -0.203,-0.204 -1.108,1.179 -2.011,3.072 M 137,333.81096 c 0,0.477 0.653,1.741 1.45,2.809 1.399,1.873 1.43,1.861 0.88,-0.325 -0.569,-2.257 -2.33,-4.135 -2.33,-2.484 m 6.606,3.5 c 1.314,7.682 5.394,11.383 5.394,4.893 0,-2.673 -0.684,-4.437 -2.314,-5.969 -3.141,-2.95 -3.733,-2.743 -3.08,1.076 m 38.425,-1.232 c 0.019,1.462 1.047,3.221 2.5,4.279 3.122,2.271 3.114,1.546 -0.031,-3.082 -2.33,-3.429 -2.498,-3.511 -2.469,-1.197 m 153.766,-0.338 c -1.768,0.466 -3.379,3.841 -2.932,6.144 0.141,0.728 -0.313,2.011 -1.01,2.851 -0.697,0.84 -1.352,2.101 -1.455,2.802 -0.102,0.702 -0.475,2.183 -0.827,3.293 -0.624,1.967 -0.551,1.976 2.977,0.377 2.838,-1.286 3.302,-1.838 2.155,-2.561 -1.28,-0.808 -1.275,-1.368 0.047,-4.504 1.411,-3.352 3.33,-9.224 2.928,-8.966 -0.099,0.064 -0.946,0.318 -1.883,0.564 m -213.188,2.144 c -0.353,0.571 -0.154,1.339 0.441,1.707 1.486,0.918 2.012,0.188 1.021,-1.417 -0.532,-0.859 -1.047,-0.962 -1.462,-0.29 m 110.426,0.343 c 0.02,0.733 0.7,2.458 1.511,3.833 l 1.475,2.5 -0.261,-3.423 c -0.24,-3.164 -2.804,-5.902 -2.725,-2.91 m 76.193,4.557 c -1.658,2.627 -3.338,5.901 -3.733,7.276 -0.646,2.243 -0.289,2.089 3.472,-1.5 5.416,-5.169 6.161,-6.604 4.563,-8.79 -1.17,-1.599 -1.566,-1.321 -4.302,3.014 M 159,341.18196 c 1.375,0.546 3.625,2.058 5,3.359 1.534,1.452 3.551,2.299 5.221,2.193 l 2.721,-0.173 -2.004,-2 c -1.708,-1.705 -2.139,-1.783 -2.917,-0.528 -0.787,1.268 -1.001,1.244 -1.547,-0.18 -0.349,-0.909 -2.015,-2.134 -3.703,-2.722 -3.841,-1.339 -6.16,-1.297 -2.771,0.051 m -6.072,4.011 c 0.315,2.313 1.203,4.415 1.974,4.671 1.099,0.364 1.256,-0.262 0.727,-2.906 -0.37,-1.853 -1.259,-3.955 -1.973,-4.67 -1.067,-1.066 -1.197,-0.545 -0.728,2.905 m -27.428,-2.132 c 0.34,0.55 1.068,1 1.618,1 0.55,0 0.722,-0.45 0.382,-1 -0.34,-0.55 -1.068,-1 -1.618,-1 -0.55,0 -0.722,0.45 -0.382,1 m -2,2 c -0.34,0.55 -0.141,1 0.441,1 0.582,0 1.059,-0.45 1.059,-1 0,-0.55 -0.198,-1 -0.441,-1 -0.243,0 -0.719,0.45 -1.059,1 m 196.7,0.2 c -0.66,0.66 -1.2,1.603 -1.2,2.096 0,0.492 -0.968,2.254 -2.151,3.915 l -2.15,3.02 2.095,-1.121 c 2.485,-1.33 3.086,-2.206 4.215,-6.143 0.954,-3.326 0.89,-3.466 -0.809,-1.767 m -137.2,0.8 c 0,0.55 0.477,1 1.059,1 0.582,0 0.781,-0.45 0.441,-1 -0.34,-0.55 -0.816,-1 -1.059,-1 -0.243,0 -0.441,0.45 -0.441,1 m 142.731,1.92 c -0.435,1.663 -0.305,2.054 0.437,1.312 0.582,-0.582 0.86,-1.647 0.62,-2.369 -0.25,-0.749 -0.703,-0.295 -1.057,1.057 M 77,348.10096 c 0,0.6 0.466,1.962 1.035,3.026 1.454,2.716 -0.297,2.508 -4.835,-0.576 -3.64,-2.473 -5.565,-1.84 -3.172,1.044 1.043,1.256 0.447,1.478 -4.156,1.547 l -5.372,0.081 4,1.893 c 2.2,1.041 5.186,1.904 6.635,1.919 1.45,0.014 3.939,0.589 5.532,1.276 l 2.897,1.25 -4.282,2.102 c -3.229,1.586 -4.282,1.77 -4.282,0.75 0,-1.888 -3.653,-1.697 -4.393,0.23 -0.334,0.87 -0.607,1.742 -0.607,1.939 0,0.196 1.974,0.652 4.386,1.014 4.62,0.693 7.41,-0.235 11.275,-3.75 1.188,-1.082 2.988,-1.758 4,-1.503 1.46,0.368 1.17,0.74 -1.411,1.81 -3.973,1.646 -4.186,2.897 -0.5,2.94 2.518,0.029 2.6,0.145 0.977,1.377 -1.664,1.262 -1.633,1.383 0.5,1.955 5.467,1.464 10.379,0.665 14.345,-2.336 4.803,-3.635 5.986,-3.81 3.865,-0.572 -0.885,1.351 -1.343,2.887 -1.017,3.415 0.326,0.527 0.059,1.136 -0.594,1.354 -2.117,0.705 -0.014,4.057 2.186,3.482 1.514,-0.396 1.988,-0.023 1.988,1.561 0,2.036 0.054,2.03 2.5,-0.268 3.709,-3.485 3.214,-5.634 -1.175,-5.092 -0.646,0.08 -1.46,-0.317 -1.809,-0.881 -0.349,-0.565 0.052,-1.027 0.89,-1.027 0.838,0 1.989,-0.87 2.559,-1.934 1.665,-3.111 1.269,-4.268 -1.215,-3.551 -1.936,0.559 -1.831,0.303 0.75,-1.837 3.345,-2.775 4.914,-2.558 3.93,0.542 -0.583,1.839 -0.353,1.978 2.209,1.338 3.407,-0.85 6.069,-3.093 7.921,-6.673 1.137,-2.199 1.138,-2.916 0.005,-4.465 -1.09,-1.491 -1.631,-1.61 -2.824,-0.62 -1.18,0.979 -1.727,0.921 -2.731,-0.288 -1.712,-2.063 -2.753,-1.898 -3.533,0.561 -0.58,1.826 -0.856,1.904 -2.318,0.652 -3.424,-2.932 -4.511,-3.177 -3.91,-0.881 0.828,3.167 -1.477,2.692 -4.091,-0.844 -2.849,-3.853 -5.541,-4.137 -4.133,-0.435 1.421,3.738 1.303,3.787 -2.369,0.986 -4.029,-3.073 -4.997,-3.201 -4.156,-0.551 0.486,1.532 0.18,2 -1.31,2 -1.07,0 -2.465,-0.626 -3.1,-1.392 -1.411,-1.7 -5.09,-2.776 -5.09,-1.489 0,0.513 -1.35,0.234 -3,-0.619 -1.887,-0.976 -3,-1.146 -3,-0.46 m 95,1.46 c 0,0.825 0.436,1.5 0.969,1.5 0.532,0 0.709,-0.675 0.393,-1.5 -0.317,-0.825 -0.753,-1.5 -0.969,-1.5 -0.216,0 -0.393,0.675 -0.393,1.5 m -6.985,0.75 c 0.009,0.688 0.452,1.925 0.985,2.75 0.755,1.169 0.973,0.893 0.985,-1.25 0.008,-1.512 -0.435,-2.75 -0.985,-2.75 -0.55,0 -0.993,0.563 -0.985,1.25 m 22.628,2.052 c -1.657,1.706 -1.694,2.075 -0.346,3.423 1.746,1.746 3.71,0.929 3.688,-1.534 -0.029,-3.136 -1.386,-3.903 -3.342,-1.889 m 150.986,-1.511 c -0.584,0.946 -5.629,14.266 -5.629,14.863 0,0.229 0.9,-0.065 2,-0.654 1.415,-0.757 2,-2.094 2,-4.567 0,-1.924 0.652,-5.058 1.449,-6.965 1.311,-3.137 1.414,-4.673 0.18,-2.677 m -15.461,3.158 c -0.585,1.678 -0.851,3.051 -0.591,3.051 0.675,0 2.562,-5.195 2.067,-5.69 -0.227,-0.227 -0.891,0.961 -1.476,2.639 m -176.696,1.749 c 0.273,2.488 0.189,2.559 -1.044,0.873 -1.242,-1.699 -1.325,-1.644 -1.134,0.743 0.113,1.418 -0.194,2.563 -0.682,2.546 -0.899,-0.031 -2.569,2.089 -2.597,3.296 -0.028,1.223 3.845,-0.344 5.575,-2.256 2.068,-2.284 3.41,-2.442 3.41,-0.4 0,0.825 0.459,1.5 1.02,1.5 1.098,0 -2.379,-7.486 -3.918,-8.437 -0.51,-0.315 -0.793,0.646 -0.63,2.135 m -31.472,0.263 c 0,1.121 0.423,2.039 0.941,2.039 1.656,0 1.893,-1.459 0.454,-2.789 -1.159,-1.072 -1.395,-0.945 -1.395,0.75 m 37.75,0.473 c 1.238,0.924 2.257,2.441 2.265,3.373 0.013,1.39 0.177,1.439 0.915,0.272 0.77,-1.216 1.248,-1.193 3.317,0.163 1.349,0.884 2.97,1.242 3.669,0.81 0.948,-0.586 0.865,-0.922 -0.343,-1.385 -0.877,-0.337 -1.876,-0.586 -2.222,-0.554 -0.345,0.032 -0.998,-0.543 -1.452,-1.278 -0.453,-0.734 -1.628,-1.398 -2.611,-1.476 -0.984,-0.077 -2.688,-0.47 -3.788,-0.873 -1.734,-0.635 -1.701,-0.509 0.25,0.948 m -89.5,0.297 c -0.687,0.239 -1.25,1.104 -1.25,1.922 0,1.737 4.131,1.492 4.714,-0.28 0.428,-1.302 -1.634,-2.281 -3.464,-1.642 m 40.75,0.171 c -0.825,0.463 -3.172,1.142 -5.215,1.509 -2.043,0.366 -3.932,1.018 -4.198,1.447 -0.637,1.032 10.628,-1.308 13.037,-2.708 1.805,-1.048 1.8,-1.089 -0.124,-1.089 -1.1,0 -2.675,0.378 -3.5,0.841 m 18.254,3.201 c -4.046,2.003 -4.846,3.897 -1.645,3.897 2.536,0 7.391,-2.973 7.391,-4.526 0,-1.944 -0.704,-1.867 -5.746,0.629 m 201.926,0.181 c -0.676,0.813 -0.726,1.82 -0.138,2.75 0.51,0.806 0.934,2.534 0.943,3.838 0.011,1.816 0.316,2.123 1.297,1.309 0.793,-0.659 1.134,-2.611 0.895,-5.123 -0.403,-4.223 -1.19,-4.952 -2.997,-2.774 m -175.18,6.685 c 0,0.532 0.675,0.709 1.5,0.393 0.825,-0.317 1.5,-0.753 1.5,-0.969 0,-0.216 -0.675,-0.393 -1.5,-0.393 -0.825,0 -1.5,0.436 -1.5,0.969 m -12.38,6.091 c -2.684,2.717 -4.398,4.94 -3.809,4.94 0.589,0 1.349,-0.45 1.689,-1 0.34,-0.55 1.307,-1 2.149,-1 2.103,0 9.303,-5.21 9.33,-6.75 0.048,-2.834 -4.708,-0.898 -9.359,3.81 m 195.63,-4.398 c -1.43,0.577 -1.699,2.338 -0.357,2.338 0.491,0 1.152,-0.675 1.469,-1.5 0.316,-0.825 0.477,-1.464 0.357,-1.421 -0.121,0.043 -0.781,0.306 -1.469,0.583 m -180.681,2.261 c -1.909,2.11 -1.192,2.758 1.303,1.177 0.754,-0.478 1.193,-1.405 0.974,-2.061 -0.256,-0.77 -1.062,-0.457 -2.277,0.884 m 185.535,2.991 c -0.833,0.528 -1.124,1.591 -0.722,2.639 0.631,1.644 0.763,1.635 2.114,-0.15 2.376,-3.14 1.66,-4.421 -1.392,-2.489 m -29.853,3.2 c -1.787,1.145 -2.998,2.487 -2.691,2.983 0.945,1.529 1.974,1.024 4.282,-2.097 2.625,-3.55 2.595,-3.567 -1.591,-0.886 m -151.622,1.409 c -0.476,1.243 -0.22,1.328 1.394,0.465 2.318,-1.241 2.537,-1.988 0.584,-1.988 -0.766,0 -1.656,0.685 -1.978,1.523 m 20.371,6.283 c 0,4.372 -2.735,8.658 -6.232,9.768 -1.985,0.63 -1.87,0.797 1.276,1.864 2.73,0.927 3.87,0.899 5.429,-0.133 4.026,-2.664 11.291,-1.246 14.554,2.842 1.45,1.816 1.663,1.637 4.206,-3.549 l 2.679,-5.462 -2.706,0.182 c -1.488,0.1 -3.575,1.256 -4.636,2.569 l -1.93,2.386 -1.729,-2.135 c -0.951,-1.174 -3.177,-2.293 -4.947,-2.487 -3.687,-0.404 -5.41,-2.737 -4.551,-6.162 0.327,-1.302 0.143,-2.646 -0.409,-2.987 -0.607,-0.375 -1.004,0.933 -1.004,3.304 m -40.5,-0.806 c 1.1,0.473 3.125,0.859 4.5,0.859 2.279,0 2.323,-0.076 0.5,-0.859 -1.1,-0.473 -3.125,-0.859 -4.5,-0.859 -2.279,0 -2.323,0.076 -0.5,0.859 m 140.11,4.574 c -0.345,0.899 -1.204,1.412 -1.91,1.141 -1.578,-0.606 -4.098,1.183 -4.981,3.535 -0.82,2.186 0.087,2.236 2.411,0.132 0.984,-0.89 3.124,-1.902 4.756,-2.25 2.639,-0.562 2.823,-0.829 1.659,-2.411 -1.186,-1.614 -1.367,-1.627 -1.935,-0.147 m 30.597,3.466 c -0.673,1.078 -0.831,1.96 -0.352,1.96 0.48,0 2.059,1.186 3.509,2.636 5.323,5.324 2.508,13.44 -5.198,14.981 -3.032,0.606 -3.135,0.76 -1.625,2.429 1.252,1.382 2.814,1.708 6.976,1.454 2.949,-0.18 6.312,-0.628 7.472,-0.996 2.476,-0.786 7.011,1.813 7.011,4.019 0,1.015 1.071,1.477 3.423,1.477 3.817,0 9.032,3.708 10.144,7.213 0.589,1.855 0.844,1.632 2.009,-1.756 1.491,-4.338 4.557,-7.202 8.674,-8.104 1.512,-0.332 2.726,-0.884 2.696,-1.228 -0.029,-0.344 -2.502,-1.788 -5.494,-3.21 -5.238,-2.488 -5.503,-2.517 -7.084,-0.769 -2.495,2.757 -7.57,3.327 -11.79,1.324 -5.437,-2.58 -8.062,-6.904 -8.16,-13.442 l -0.082,-5.473 -3.868,-0.803 c -2.127,-0.442 -4.581,-1.449 -5.452,-2.238 -1.388,-1.256 -1.737,-1.191 -2.809,0.526 m -104.77,2.114 c -2.33,2.502 -2.523,3.002 -0.937,2.415 1.1,-0.406 3.477,-0.987 5.282,-1.29 3.131,-0.526 3.204,-0.637 1.595,-2.415 -2.225,-2.459 -2.505,-2.398 -5.94,1.29 m 37.097,5.791 c -0.359,0.58 -1.638,1.069 -2.843,1.087 -1.205,0.017 -3.065,0.692 -4.132,1.5 -1.859,1.406 -1.825,1.468 0.8,1.468 6.409,0 10.535,4.544 9.42,10.376 l -0.447,2.338 3.474,-2.357 c 1.91,-1.296 3.885,-2.357 4.389,-2.357 0.504,0 -0.252,-1.012 -1.68,-2.25 -1.428,-1.238 -3.21,-4.05 -3.96,-6.25 -1.339,-3.932 -3.738,-5.631 -5.021,-3.555 m -44.991,2.986 c -0.317,0.512 -0.118,1.213 0.441,1.559 0.559,0.345 1.016,-0.074 1.016,-0.931 0,-1.757 -0.6,-2.015 -1.457,-0.628 m 23.493,1.002 c -0.732,1.368 -0.284,1.548 3.053,1.23 4.662,-0.445 5.134,-1.756 0.858,-2.384 -2.118,-0.311 -3.317,0.043 -3.911,1.154 m 53.964,4.191 c -1.375,1.021 -4.891,2.305 -7.814,2.853 -7.656,1.434 -10.071,3.1 -3.391,2.338 7.993,-0.912 13.205,3.035 13.205,10 0,6.116 -8.622,11.626 -18.25,11.663 l -5.75,0.022 0.001,3.75 c 0.001,3.438 0.357,3.917 4.282,5.75 l 4.282,2 3.715,-2 c 2.166,-1.166 3.716,-2.75 3.717,-3.8 0.008,-4.916 3.39,-8.124 10.753,-10.2 1.85,-0.522 2.25,-1.342 2.25,-4.613 0,-4.859 3.485,-8.883 7.705,-8.895 1.983,-0.005 3.124,-0.716 3.926,-2.447 1.234,-2.663 1.591,-2.479 -7.78,-4.004 -2.006,-0.326 -4.706,-1.422 -6,-2.434 -2.284,-1.788 -2.422,-1.787 -4.851,0.017 m -238.612,-0.424 c -1.162,0.222 -3.4,1.747 -4.975,3.39 -2.185,2.281 -2.881,3.991 -2.942,7.227 -0.081,4.354 -0.935,6.683 -2.448,6.683 -0.473,0 -3.232,-2.025 -6.132,-4.5 -2.899,-2.475 -6.07,-4.5 -7.046,-4.5 -2.845,0 -8.845,5.87 -8.845,8.653 0,6.695 4.808,10.339 16.343,12.386 6.789,1.205 6.876,1.192 11,-1.662 3.49,-2.416 4.982,-2.829 9.302,-2.578 l 5.145,0.298 -1.118,2.962 c -1.032,2.733 -0.84,3.239 2.48,6.56 4.261,4.26 11.583,5.817 14.623,3.109 0.97,-0.864 4.142,-1.688 7.248,-1.883 4.632,-0.289 5.914,0.018 7.939,1.905 1.328,1.238 2.985,2.25 3.682,2.25 0.697,0 2.925,1.125 4.951,2.5 6.026,4.089 16.209,2.85 21.7,-2.641 2.475,-2.475 2.861,-3.51 2.391,-6.405 -0.512,-3.157 -0.348,-3.454 1.909,-3.454 6.17,0 12.405,-5.275 12.405,-10.496 0,-2.758 -4.636,-6.504 -8.05,-6.504 -1.728,0 -4.386,-0.735 -5.908,-1.634 -2.055,-1.214 -3.939,-1.459 -7.326,-0.951 -5.952,0.893 -16.434,7.566 -16.887,10.752 -0.432,3.034 -3.829,3.807 -3.829,0.871 0,-7.051 -9.6,-12.042 -17.435,-9.063 -2.315,0.881 -2.565,0.74 -2.565,-1.444 0,-1.331 -1.066,-3.659 -2.369,-5.174 -1.941,-2.256 -3.266,-2.783 -7.315,-2.912 -2.721,-0.086 -6.042,-0.85 -7.381,-1.697 -3.016,-1.907 -5.795,-2.573 -8.547,-2.048 m 125.931,3.16 c -0.971,1.556 -0.642,2.03 2.351,3.387 3.238,1.467 3.381,1.462 2.046,-0.085 -0.79,-0.914 -1.848,-2.438 -2.351,-3.386 -0.86,-1.62 -0.984,-1.615 -2.046,0.084 m 212.431,19.856 c -1.512,0.229 -2.749,0.949 -2.747,1.6 0.002,0.778 2.034,1.184 5.929,1.184 5.582,0 5.835,-0.102 4.343,-1.75 -1.575,-1.739 -2.254,-1.832 -7.525,-1.034"
     stroke="none"
     fill="#000000"
     fill-rule="evenodd"
     id="path2" />
</svg>
