<?xml version="1.0" encoding="UTF-8"?>
<!DOCTYPE svg PUBLIC "-//W3C//DTD SVG 1.1//EN" "http://www.w3.org/Graphics/SVG/1.1/DTD/svg11.dtd">
<svg version="1.1" xmlns="http://www.w3.org/2000/svg" xmlns:xlink="http://www.w3.org/1999/xlink" x="0" y="0" width="540" height="528" viewBox="0, 0, 540, 528">
  <g id="Layer_1">
    <g>
      <path d="M159.5,6 C158.5,7.1 157.2,8 156.6,8 C156,8 153.2,10.3 150.3,13.2 C145.2,18.3 144.9,18.4 138.3,18.8 C131.4,19.3 130.7,19.6 122.6,26.2 C120.7,27.8 118.8,29 118.3,29 C117.7,29 116.5,29.9 115.5,31 C114.5,32.1 112.7,33 111.5,33 C110.1,33 107.4,35.1 103.9,39 C95.9,47.8 92,52.6 92,53.7 C92,54.3 91.1,55.5 90,56.5 C88.6,57.8 88,59.6 88,62.5 C88,66.8 87.7,67.5 79.3,78.4 C76.9,81.4 75,84.8 75,86 C75,87.1 74.6,88 74,88 C73.4,88 73,91.6 73,96.9 C73,101.9 73.5,106.2 74,106.5 C74.6,106.8 75,107.9 75,108.8 C75,109.7 75.9,111.6 77,113 C78.1,114.4 79,116.1 79,116.8 C79,117.4 81.5,121.6 84.5,126 C87.5,130.4 90,134.6 90,135.3 C90,138.6 103.4,153.9 112.3,160.6 C115.4,163 118.4,165 118.9,165 C119.4,165 120.4,165.7 121.1,166.6 C121.8,167.5 126.6,171.3 131.7,175.1 C141.8,182.6 143.6,185.5 140.5,189 C137.8,192 128.8,191.5 121.8,187.9 C119.3,186.6 62.3,186.7 61.5,188 C61.2,188.5 59.9,189 58.6,189 C57.3,189 55.5,189.9 54.5,191 C53.5,192.1 51.7,193 50.5,193 C49.3,193 47.5,193.9 46.5,195 C45.5,196.1 44,197 43.2,197 C41.4,197 36.1,200.8 30.1,206.4 C25.8,210.5 18,220.3 18,221.6 C18,223 13,232.9 12,233.5 C11.4,233.8 11,235.2 11,236.4 C11,237.7 10.3,239.3 9.4,240.1 C8.1,241.2 7.9,243.7 8.1,255.9 C8.3,270.7 7.8,274.9 5.4,278.5 C3.3,281.5 3.4,321.3 5.5,323 C6.3,323.7 7,325.2 7,326.4 C7,327.7 8.1,329.7 9.5,331 C10.9,332.3 12,333.8 12,334.4 C12,334.9 15.3,338.8 19.3,343 C23.2,347.2 27.6,352.3 29,354.4 C30.4,356.4 32.3,359.2 33.3,360.5 C35.4,363.3 45,370 47,370 C47.7,370 49.1,370.7 50,371.5 C53.1,374.3 63.2,380 65.1,380 C66.1,380 67.2,380.5 67.5,381 C67.8,381.6 69.2,382 70.6,382 C71.9,382 73,382.4 73,383 C73,384.2 109.2,384.4 110.6,383.2 C112.4,381.6 119.7,379.8 121.7,380.4 C122.9,380.8 124.2,380.5 125,379.5 C125.7,378.7 127.3,378 128.6,378 C129.8,378 131.2,377.5 131.6,376.9 C131.9,376.3 133.1,376 134.1,376.3 C135.1,376.6 136.4,376.2 137.1,375.4 C137.7,374.6 139.3,374 140.6,374 C141.8,374 143.2,373.5 143.5,373 C143.9,372.4 145,372.2 146,372.5 C147,372.8 148,372.5 148.3,371.6 C148.6,370.8 151,369.9 153.9,369.5 C156.6,369.1 159.4,368.2 160.1,367.4 C160.7,366.6 162.3,366 163.5,366 C164.7,366 166.3,365.3 167,364.5 C167.7,363.7 169,363 169.9,363 C170.8,363 172.6,362.1 174,361 C175.4,359.9 177.2,359 178.1,359 C179,359 180.5,358.1 181.5,357 C182.5,355.9 184.2,355 185.2,355 C186.3,355 188.3,354.2 189.6,353.1 C193.1,350.3 198.7,349.5 200.6,351.5 C203,353.9 201.6,357.3 195.7,363.9 C189.3,371.2 187.2,374.1 183.8,380.8 C182.3,383.7 178.3,389.1 174.9,392.8 C171.5,396.5 167.9,401.4 167,403.6 C166,405.9 164.7,408.1 164.1,408.4 C163.5,408.8 163,409.9 163,410.9 C163,411.9 162.1,413.9 161,415.3 C159.9,416.7 159,418.5 159,419.3 C159,420.1 158.1,421.9 157,423.3 C155.9,424.7 155,426.7 155,427.8 C155,428.8 154.1,430.5 153,431.5 C151.9,432.5 151,434.4 151,435.7 C151,436.9 150.6,438 150,438 C148.8,438 148.7,450.4 149.9,452.8 C150.4,453.7 151.3,455.6 151.9,457 C152.5,458.4 154.6,461.5 156.5,464 C161,469.8 164.5,474.7 167.1,478.7 C168.2,480.4 170.6,482.8 172.5,483.9 C176.8,486.4 179.5,490.5 179.2,494.2 C179,496.4 180,498.5 183.2,502.2 C188.2,508.2 197.1,515 200,515 C201.1,515 202,515.4 202,516 C202,516.5 202.8,517 203.8,517 C205.5,517 211.7,519 213.5,520.1 C214.1,520.5 216.4,521.1 218.8,521.5 C221.1,521.9 223.7,522.8 224.4,523.6 C226.3,525.4 233.9,525.4 236.4,523.5 C237.5,522.7 239,522 239.9,522 C240.7,522 242.1,521.4 242.9,520.7 C246.2,518 251.9,517.1 265.9,517.2 C274.9,517.2 280.6,516.8 281.3,516.1 C281.9,515.5 283.3,515 284.5,515 C285.7,515 287,514.6 287.6,514.2 C288.1,513.7 290.5,512.7 293,512 C295.5,511.2 298.6,509.8 299.9,508.8 C301.2,507.8 302.9,507 303.7,507 C305.9,507 310.1,503.6 321.7,492.5 C332.8,481.9 336.7,476.9 338.9,470.5 C339.6,468.3 341.4,464.9 342.9,463 C344.3,461.1 345.5,458.7 345.6,457.8 C345.7,456.9 346.9,453.9 348.4,451.1 C351.3,445.5 351.6,443.2 349.8,438.3 C348.8,435.6 348.8,434.5 349.8,433 C350.5,431.9 351,430.2 351,429.1 C351,428.1 351.7,426.6 352.6,425.9 C353.9,424.8 354.1,423.3 353.7,418.8 C353.3,414.2 353.5,412.8 354.9,411.6 C355.9,410.7 357.1,410 357.7,410 C358.3,410 361.1,412.9 363.9,416.5 C366.7,420 371.6,424.8 374.7,427.2 C377.9,429.5 382.5,433.2 385,435.5 C391.9,441.8 396.8,445.1 400.6,446.1 C402.5,446.7 404,447.5 404,448.1 C404,448.6 405.7,449.1 407.8,449 C413.3,448.9 418.1,450.1 418.7,451.6 C419.1,452.7 422,453 431.6,453 C439,453 444,452.6 444,452 C444,451.5 445.7,450.2 447.8,449.1 C449.8,448 456.2,442.4 462,436.5 C471.6,426.7 479.4,420.1 486.6,415.8 C488.2,414.8 492.2,412.2 495.5,410 C498.8,407.8 502.9,405.1 504.6,404 C508.1,401.7 513,394.7 513,392 C513,391 514.6,387.9 516.5,385 C518.4,382.1 520,379 520,378 C520,376.9 520.5,375.8 521,375.5 C521.6,375.2 522,373.9 522,372.7 C522,371.5 522.9,369.4 524,368 C525.1,366.6 526,364.7 526,363.8 C526,362.9 526.4,361.9 526.9,361.6 C527.4,361.3 528.1,359 528.4,356.5 C528.8,354 529.7,351.5 530.4,350.8 C531.1,350.1 532,346.6 532.3,343.1 C532.7,339.5 533.7,335.9 534.5,335 C536.6,332.7 536.7,313.8 534.6,312.1 C533.8,311.4 532.9,308.7 532.5,305.9 C532.1,303.2 531.4,301 531,301 C529.3,301 528,293.5 528,284.3 C528,279.3 527.6,274.8 527,274.5 C526.5,274.2 526,273.1 526,272.1 C526,267.8 510,250.7 506.8,251.7 C505.5,252.1 499.3,249.1 496.3,246.6 C494.1,244.8 492,244.1 487,243.7 C479.5,243.2 475.9,242.4 475.1,241.1 C474.8,240.6 472.4,239.9 469.8,239.5 C467.2,239.1 464.5,238.2 463.9,237.4 C463,236.3 458.2,236 439.6,236 C416.6,236 416.3,236 414.2,233.7 C409.2,228.4 411.9,223.5 424,215.4 C427.6,213 431.6,210.3 433,209.3 C434.4,208.4 442.2,201.1 450.3,193.1 C467.1,176.6 478.2,161.6 479.5,153.9 C479.9,151.5 480.5,149 480.9,148.5 C481.3,147.9 482.3,145.5 483,143 C483.7,140.5 484.7,138 485.2,137.4 C485.7,136.7 486.1,121.2 486.1,102.9 L486.1,69.5 L482.6,66.5 C480.7,64.8 477.3,62.1 475,60.5 C472.8,58.8 469.4,56.3 467.6,54.7 C465.7,53.2 463.6,52 462.8,52 C461.9,52 460.1,51.1 458.7,50 C457.3,48.9 455.5,48 454.7,48 C453.9,48 452.7,47.3 452,46.5 C451.3,45.7 450,45 449,45 C448.1,45 446.1,44.1 444.7,43 C443.3,41.9 441.3,41 440.2,41 C439.2,41 437.5,40.1 436.5,39 C435.5,37.9 433.9,37 433,37 C432,37 430.1,36.1 428.7,35 C427.3,33.9 425.6,33 424.8,33 C424.1,33 422.4,32.1 421,31 C419.6,29.9 418.1,29 417.7,29 C417.2,29 414.3,26.8 411.2,24.1 C406.7,20.2 404.5,19 400.7,18.5 C398.1,18.1 395.7,17.4 395.4,16.9 C394.7,15.7 377.6,15.8 376.4,17 C375.9,17.5 372.8,18.2 369.5,18.6 C363.6,19.3 363.2,19.5 348,29.7 C340.8,34.5 331.3,45 325.5,54.6 C324.4,56.5 322.7,58.9 321.8,60 C320.8,61.1 320,63 320,64.1 C320,66.3 317,72 313.9,75.5 C313,76.6 311.9,79.4 311.5,81.7 C311.1,84 310,87 308.9,88.4 C307.9,89.7 307,91.7 307,92.7 C307,93.7 306.5,95.1 305.9,95.7 C305.2,96.4 304.7,99.9 304.6,103.7 C304.5,109.2 304.2,110.5 302.8,110.8 C301.1,111.1 299.2,107.9 296.9,100.5 C295.6,96.2 294.9,94.1 293.2,89.8 C292.5,88.3 292.3,86.3 292.6,85.5 C293,84.7 292.6,83.3 291.9,82.4 C290.2,80.3 288.4,77.2 287,74 C286.5,72.6 285.5,70.8 285,70 C284.4,69.2 283.7,67.8 283.4,67 C283.1,66.2 282.4,64.7 281.9,63.8 C281.4,62.8 281,61.3 281,60.4 C281,59.5 280.1,57.7 279,56.3 C277.9,54.9 277,53.2 277,52.5 C277,51.8 275.7,49.6 274,47.5 C272.4,45.4 271,43.1 271,42.3 C271,41.5 269.8,39.2 268.3,37.2 C264.6,32.1 244.8,12 243.4,12 C242.8,12 241.3,10.9 240,9.6 C238.8,8.2 236.5,6.8 234.9,6.5 C233.3,6.1 231.8,5.4 231.5,4.9 C231.1,4.4 216.3,4 196.1,4 C162.6,4 161.2,4.1 159.5,6 z M354.1,89.4 C352.9,91.4 352,93.7 352,94.5 C352,95.3 351.1,97.5 350,99.5 C348.9,101.5 348,103.8 348,104.8 C348,106.2 341.6,132 338.9,141.5 C338.5,143.1 336.7,149.9 335,156.5 C333.3,163.1 331.4,170 330.9,171.7 C328.6,179.9 327.9,183.2 326,194 C324.9,200.3 323.3,208.4 322.6,212 C321.8,215.6 321.2,219.2 321.1,220 C321.1,220.8 320.7,223 320.4,224.7 C319.5,229.4 322,229 324.3,224.2 C325.3,222.2 327.2,219 328.6,217.1 C329.9,215.2 331.3,212.5 331.7,211.1 C332,209.7 333.3,207.4 334.5,206 C336.9,203.2 340,197.4 340,195.5 C340,194.8 340.6,194 341.4,193.7 C342.2,193.4 344,190.5 345.5,187.3 C347,184.1 349,180.6 350,179.5 C351,178.4 351.9,177 352.1,176.5 C352.5,175.4 363.4,158.7 371.1,147.3 C373.8,143.3 376,139.7 376,139.2 C376,138.7 376.9,137.5 378,136.5 C379.1,135.5 380,134 380,133.1 C380,132.2 380.9,130.9 382,130.2 C383.1,129.5 384,128.5 384,127.9 C384,127.3 385.4,124.9 387,122.5 C388.7,120.1 390,117.7 390,117.2 C390,116.6 390.7,116 391.5,115.6 C392.3,115.3 393,114.3 393,113.3 C393,111.6 404.7,99 406.2,99 C408.1,99 406.6,102.5 401.6,109.5 C398.6,113.7 393.3,121.5 389.8,127.1 C386.4,132.6 382.7,138.3 381.8,139.8 C380.8,141.3 379.3,143.8 378.4,145.5 C377.1,148 370.6,158.8 365.2,167.5 C364.6,168.6 362.9,171.6 361.5,174.2 C360.2,176.8 358.6,179.1 358.1,179.4 C357.6,179.8 356.5,181.3 355.7,182.8 C352.5,188.9 348.5,195.8 345.3,200.7 C343.5,203.5 342,206.2 342,206.6 C342,207 341.4,208.1 340.6,208.9 C339.8,209.8 337.8,213 336.2,216 C334.6,219 331.8,224.1 330.1,227.3 C327.3,232.2 327.1,233.1 328.5,233.6 C330,234.2 337.7,229.7 342.5,225.3 C343.6,224.3 345.8,222.7 347.3,221.7 C348.9,220.7 350.9,219.2 351.8,218.4 C354.3,216.2 361.4,210.8 365.5,208 C367.6,206.6 370.2,204.6 371.3,203.5 C372.5,202.4 374.9,200.6 376.6,199.5 C378.4,198.4 385.1,193 391.5,187.5 C398,182 405.3,175.8 407.9,173.7 C410.4,171.6 416.4,166.1 421.2,161.4 C429.4,153.5 432,151.7 432,154 C432,156.9 407.1,182.9 398.8,188.6 C396.7,190.1 395,191.6 395,192.1 C395,192.6 393.8,193.6 392.3,194.4 C390.7,195.2 388.6,196.7 387.5,197.7 C385.3,199.7 379.4,204.3 375,207.5 C354.5,222.3 337,236.4 337,238 C337,239.1 337.1,240 337.3,240 C338.7,239.9 349.1,235.4 358.5,230.9 C361.9,229.3 365.3,228 366.2,228 C367,228 368.8,227.2 370.1,226.2 C371.4,225.2 374,223.8 375.9,223 C377.7,222.3 380.4,220.7 381.9,219.5 C383.3,218.3 386.4,216.5 388.8,215.5 C391.1,214.4 393,213.3 393,212.9 C393,212.1 398.7,209 400.1,209 C400.5,209 402.9,207.6 405.3,206 C410.4,202.6 411,202.4 411,204.4 C411,205.6 403.1,211.6 397.3,214.8 C396,215.6 394.6,216.8 394.3,217.6 C394,218.4 393,219 392,219 C390.9,219 389.8,219.4 389.5,220 C389.2,220.5 386.3,222.6 383.2,224.7 C380.1,226.7 377.2,228.8 376.9,229.2 C376.4,230 362.8,236 355.5,238.6 C353.3,239.4 350.4,241 349,242 L346.5,244 L349.5,246.5 C351.2,247.9 353.2,249 354.1,249 C355,249 356.9,249.9 358.4,251.1 C360.9,253 361.8,253.1 376.3,252.5 C384.6,252.2 399.6,251.8 409.5,251.5 C419.4,251.3 429.3,250.6 431.5,250 C433.7,249.4 438.9,249.1 443,249.4 C452,249.9 451,249.7 451,251.5 C451,253 446.6,253.6 439.9,253.1 C438.5,253 435.4,253.8 432.9,254.8 C429.6,256.2 427.8,256.5 426,255.8 C424.6,255.3 419,255.1 413.5,255.4 C389.9,256.8 364.3,259 354.4,260.6 C351.1,261.1 348.8,260.6 343.1,258.1 C334.2,254.3 329.9,254.2 319.7,257.5 C315.5,258.8 310.4,260.2 308.5,260.6 C303.6,261.5 304.1,263.3 309.8,265.3 C313.6,266.6 316.5,266.8 325.5,266.2 C344,265 360.6,265.5 369,267.4 C370.4,267.7 373.8,268.2 376.5,268.5 C379.3,268.8 384,269.4 387,269.9 C390,270.4 392.9,270.5 393.3,270.3 C393.7,270 394.6,270.3 395.3,270.8 C396,271.4 398.8,272.1 401.5,272.4 C406.9,273 414.9,274.3 424.5,276 C427.8,276.6 433,277.5 436,278 C454.1,281.1 462,283 462,284.2 C462,284.7 462.9,285 464,285 C465.1,285 466,285.4 466,286 C466,286.5 467.8,287.4 470,288 C474.2,289.1 477.4,291.6 476.5,293.1 C475.6,294.4 471.2,294.2 468.2,292.6 C462.3,289.6 448.8,285.1 445.5,285 C440.3,285 426.4,283.4 425.4,282.8 C424.8,282.4 421.8,282 418.9,281.9 C415.9,281.8 413.1,281.4 412.5,281 C412,280.6 409.5,280 407,279.7 C404.5,279.4 399.6,278.6 396,278 C385.9,276.3 376.9,275 372,274.5 C369.5,274.3 363.7,273.7 359,273.1 C346.6,271.8 337.6,272.1 337.2,274 C337,275 338.3,275.9 341,276.8 C343.3,277.5 346.9,279.3 349.2,280.8 C351.4,282.3 354.1,284 355.1,284.6 C356.2,285.2 357.8,286.4 358.7,287.2 C359.7,288 361.3,289 362.3,289.3 C363.2,289.7 364,290.4 364,290.9 C364,291.4 365.4,292.6 367,293.4 C368.7,294.3 371.4,295.7 373,296.6 C374.7,297.4 376,298.6 376,299.1 C376,299.6 376.6,300 377.4,300 C378.1,300 380.4,301.3 382.5,303 C384.6,304.7 386.6,306 387.1,306 C387.5,306 389.9,307.3 392.3,309 C394.8,310.6 397.1,312 397.4,312 C397.8,312 398.6,312.5 399.3,313 C401.6,315 411.4,321 412.4,321 C412.9,321 414.2,321.8 415.2,322.7 C418.2,325.4 423.5,328.4 438,335.6 C445.4,339.3 453.4,343.6 455.7,345.2 C458,346.7 460.3,348 460.9,348 C461.5,348 462,348.4 462,349 C462,349.5 461.7,350 461.4,350 C459.8,350 449,346.6 445.3,344.9 C442.9,343.9 440.6,343 440.1,343 C438.2,343 411.6,328.8 408.7,326.2 C407.8,325.4 406.1,324.2 405.1,323.6 C398.6,319.9 383.7,310.6 381.5,308.7 C381,308.3 379.2,307 377.5,306 C369.8,301 369.5,300.8 365.5,297.7 C362.6,295.4 355,290.5 348,286.2 C341.9,282.5 328.7,276 327.3,276 C326.6,276 326,276.3 326,276.8 C326,277.2 330.2,281.6 335.4,286.7 C340.6,291.7 345.7,297.1 346.7,298.7 C347.7,300.2 351.9,305.9 356,311.3 C360.1,316.7 364.4,322.4 365.5,323.8 C366.6,325.3 369.4,329 371.8,332 C374.1,335 377,338.8 378.2,340.5 C379.5,342.1 383,346.6 386,350.5 C389,354.3 393.2,359.7 395.3,362.5 C397.3,365.2 400.9,369.7 403.3,372.3 C405.6,375 409.9,379.9 412.8,383.3 C421,392.9 423.2,395.2 428.8,399.8 C431.7,402.2 434,404.5 434,405.1 C434,410.2 412.6,392.1 397.9,374.5 C393.3,369.1 388.9,363.9 388.2,363 C387.5,362.2 384,357.7 380.4,353 C376.8,348.4 373.3,344.1 372.6,343.5 C371.9,343 370.5,341.1 369.5,339.5 C368.5,337.8 366.6,335.4 365.3,334 C361.6,330.2 355,322 355,321.2 C355,319.6 346.9,312 345.2,312 C344.2,312 342.9,313 342.3,314.2 C341.4,316.1 342.6,319.1 349.5,333 C354,342.1 359.8,353.8 362.4,359 C365,364.2 368,370.2 369,372.3 C370.1,374.5 371,376.8 371,377.5 C371,378.2 371.3,379 371.8,379.2 C372.2,379.4 375.1,384.8 378.3,391.2 C382.2,399 385.1,403.6 387.1,405 C389.9,407.1 391,410 389,410 C388.4,410 386.1,408.2 383.7,406.1 C379.9,402.6 377.6,399 370.3,385.1 C369.1,382.7 366.8,378.7 365.2,376.1 C357.5,363.6 346.4,342.7 339.1,326.5 C327.3,300.7 322.9,294 317.9,294 C312.1,294 308.7,284.4 313,280.5 C314.1,279.5 315,278.1 315,277.4 C315,275.8 308.3,270 306.4,270 C305.6,270 303.3,269.2 301.2,268.1 C298.9,266.9 296.3,266.4 294.2,266.7 C291.5,267.2 291,267.6 291.1,269.9 C291.2,271.3 290.5,273.8 289.6,275.5 C287.6,279.3 287.5,286.9 289.5,289.8 C290.6,291.3 290.9,293.1 290.4,295.7 C289.6,300.6 287.4,303 283.9,303 C282,303 280.9,303.6 280.5,305 C279.8,307.3 281.5,310 283.7,310 C286.3,310 286.2,313 283.1,319.5 C281.4,323.1 280,326.4 280,326.8 C280,327.7 275.3,336.3 272.4,340.8 C269.7,344.9 261.5,351.1 259.7,350.4 C258.8,350.1 257,351.7 254.6,354.8 C252.6,357.5 251,360 251,360.4 C251,360.7 249.3,363.5 247.2,366.7 C231.7,390 227,397.2 227,397.9 C227,398.3 226.1,399.5 225,400.5 C223.9,401.5 223,402.7 223,403.1 C223,403.5 221.7,405.9 220,408.3 C218.4,410.8 217,413.2 217,413.8 C217,414.4 216.6,415 216.1,415.2 C215.6,415.3 214.3,417.1 213.1,419 C212,420.9 210.1,424.1 209,426 C201.4,438.8 198.2,443.5 196.9,443.5 C194.5,443.5 195.9,439.3 201.6,430.1 C204.6,425.2 207,420.9 207,420.6 C207,420.2 208.5,417.7 210.4,414.9 C212.3,412.2 214.2,408.9 214.6,407.7 C215,406.5 216.3,404.2 217.6,402.7 C218.9,401.1 220,399.3 220,398.6 C220,397.9 221.4,395.6 223,393.5 C224.7,391.4 226,389.2 226,388.5 C226,387.9 226.9,386.5 228,385.5 C229.1,384.5 230,383.3 230,382.8 C230,382.3 231.1,380.4 232.5,378.6 C233.9,376.8 235,374.7 235,374 C235,373.2 236,371.6 237.1,370.4 C239.5,367.8 241,365.4 244,359.4 C245.1,357.1 246.6,355 247.4,354.7 C248.6,354.2 248.8,352.7 248.3,347 L247.7,340 L261.1,327.1 C272,316.6 274.3,314 273.2,312.9 C271.2,310.8 263.7,318.6 224.7,363 C219.6,368.7 212.4,376.9 208.5,381.1 C204.7,385.4 198.1,392.7 194,397.5 C181.1,412.5 178.8,415 177.9,415 C175.6,415 177.5,410.7 182.5,405 C185.5,401.5 188,398.1 188,397.4 C188,396.8 189.1,395.5 190.5,394.6 C191.9,393.7 193.9,391.2 195,389.1 C196.1,386.9 198.4,384.2 200.1,382.9 C201.8,381.7 205.2,378 207.6,374.7 C210.1,371.4 214.1,366.9 216.5,364.8 C219,362.6 222.2,358.8 223.6,356.4 C225,354 226.6,352 227.1,352 C227.6,352 229.8,349.6 232.1,346.8 C238.3,338.8 247.1,329.1 261.8,314 C273.8,301.6 275,300.1 275,296.8 C275,294.8 274.6,292.8 274,292.5 C273.5,292.2 273,291 273,289.9 C273,287.2 269,282 266.9,282 C265.9,282 263.9,283 262.4,284.3 C260,286.4 259.9,286.7 261.4,288.2 C263.6,290.4 263.4,293.6 261,296 C259.1,297.9 258.7,297.9 256.1,296.6 C254.5,295.7 253,295.3 252.7,295.7 C252.3,296 250.9,295.5 249.6,294.6 C246.4,292.6 243.6,292.5 242,294.5 C241,295.8 241,296.4 242.4,297.8 C246,301.9 243.2,311 238.3,311 C236.7,311 231.2,314.3 215.3,324.6 C211.1,327.4 195.1,335.8 191,337.4 C190.2,337.8 188.2,338.9 186.5,340 C181.8,343 177.5,344.8 177.1,343.8 C176.7,342.6 179.8,340.2 182.9,339.4 C184.2,339 186.4,337.5 187.9,336 C189.3,334.6 192.1,332.6 194.1,331.7 C196.1,330.8 198.3,329.4 199,328.5 C199.7,327.7 200.7,327 201.3,327 C202.5,327 214.9,319.3 216.5,317.5 C217.1,316.9 220.1,314.8 223.2,312.7 C229.9,308.3 231.8,305.6 229.9,303.4 C228.9,302.2 227.5,302 224.2,302.5 C221.7,302.9 219,303.5 218.1,304 C216.4,304.8 212.5,306.4 202.5,310.1 C194.3,313.1 191.8,314.1 189.7,315.2 C188.7,315.7 184.2,317.4 179.7,319 C165,324.1 162.5,325.1 161.6,326.1 C161,326.6 159.7,327 158.5,327 C157.3,327 155.5,327.7 154.4,328.5 C153.4,329.3 151.9,330 151.2,330 C150.4,330 148.4,330.6 146.7,331.4 C143.7,332.8 142.1,333.1 132.5,334.5 C130.3,334.9 127.6,335.6 126.5,336.1 C125.4,336.6 120.9,337 116.5,336.8 C110.2,336.6 108.5,336.2 108.5,335 C108.5,333.9 110.2,333.3 115.5,332.9 C123.8,332.2 130.1,331 131.5,330 C132.1,329.6 134.3,328.9 136.4,328.6 C138.5,328.2 141.3,327.2 142.5,326.4 C143.7,325.6 144.9,325.3 145.3,325.6 C145.7,326 147.1,325.5 148.4,324.6 C149.8,323.7 151.4,323 152.1,323 C153.2,323 154.5,322.5 164.2,318.1 C166.8,317 169.5,316 170.2,316 C170.9,316 173.4,315.1 175.8,314 C183.8,310.2 188.5,308.2 190.5,307.7 C191.6,307.4 194.1,306.6 196,305.9 C199.4,304.7 200.8,304.1 210,300.2 C212.5,299.1 215.3,298 216.3,297.7 C218.4,296.9 218.5,293.7 216.5,292 C214.5,290.3 214.6,288.7 217,286.5 C218.5,285.1 219.8,284.9 223.7,285.5 C226.3,285.9 229.8,286.9 231.4,287.7 C234.3,289.2 234.5,289.1 236.4,286.8 C237.6,285.4 239,283.4 239.6,282.4 C240.5,280.8 241.9,280.5 247.6,280.5 C257.9,280.4 268.7,275 267.8,270.4 C267.1,266.9 264.6,266.5 254.8,268.4 C245,270.4 238.7,272.6 234.1,276 C231.7,277.6 229.1,278.1 218.9,278.5 C207.3,279 197.7,279.7 174,282 C168.8,282.6 159.6,283.2 153.5,283.6 C147.5,283.9 141.9,284.5 141,285 C140.2,285.4 134.8,285.8 129.1,285.8 C123.3,285.9 118.2,286.4 117.6,287 C117.1,287.5 115.1,288 113.2,288 C111.4,288 109.1,288.4 108.2,288.9 C107.3,289.4 103.9,290.1 100.8,290.4 C95.9,291 95,290.9 95,289.6 C95,288.7 96.2,287.7 97.8,287.4 C99.3,287 101,286.4 101.5,286 C102.1,285.6 104.5,285 106.9,284.6 C109.3,284.2 112.2,283.5 113.3,282.9 C114.4,282.3 117.4,281.6 120.1,281.5 C122.8,281.3 125.7,280.7 126.7,280.2 C127.6,279.6 131.7,279.4 135.7,279.7 C140,280.1 144.6,279.8 147.2,279.1 C149.6,278.4 155.8,277.7 161,277.5 C174.1,277 194.9,275.3 198.2,274.5 C199.7,274.1 202,272.8 203.2,271.6 C207.8,267.1 213.9,265.1 225.5,264.1 C234.7,263.4 236.8,263.5 238.8,264.8 C240.8,266.1 241.6,266.1 243.2,265.1 C244.4,264.4 246.4,264.1 248.1,264.5 C251.2,265.2 254.5,263.6 253.4,261.9 C253.1,261.4 251.5,261 249.8,261 C247,261 244.4,260.4 237.5,258 C235.4,257.3 226,252.6 217.7,248.2 L213,245.6 L209.1,249.4 C204.7,253.7 202.3,253.8 196.9,249.9 C195.4,248.9 193.5,248 192.7,248 C191.8,248 190.8,247.5 190.5,247 C190.2,246.4 187.9,246 185.5,246 C183.1,246 178.5,245.3 175.4,244.5 C172.3,243.7 169.3,243.3 168.8,243.6 C168.3,243.9 166.7,243.7 165.2,243.1 C163.7,242.5 160.7,241.8 158.5,241.5 C156.3,241.2 151.6,240.6 148,240 C144.4,239.5 137.1,238.8 131.7,238.4 C126.3,238 121.7,237.3 121.4,236.9 C121.1,236.4 115.8,236 109.5,236 C98.4,236 94.8,235 98.1,232.9 C100,231.7 118.7,231.8 119.5,233 C119.9,233.6 125.7,234 133.5,234 C141.3,234 147.1,234.4 147.5,235 C147.8,235.5 149.9,236 152,236 C154.2,236 158.1,236.4 160.7,236.9 C163.3,237.4 168.9,238.3 173,238.9 C177.1,239.6 182.2,240.6 184.3,241.2 C187,242 188.7,242 190.4,241.2 C192.5,240.3 192.7,239.6 192.6,234.2 C192.4,228.4 191,225 188.6,225 C188,225 184.1,223.7 180,222.1 C175.9,220.5 170.5,218.7 168,218 C165.5,217.3 160.8,216 157.5,215 C154.2,214 148.1,212.2 144,211 C139.9,209.8 134.5,208.2 132.1,207.4 C129.6,206.6 126.6,206 125.3,206 C124,206 122.2,205.6 121.2,205.1 C120.3,204.6 118.7,203.9 117.8,203.6 C116.8,203.3 116,202.3 116,201.4 C116,199.6 118.2,199.8 127,202 C129.5,202.6 132.7,203.2 134.2,203.3 C135.6,203.4 137.2,203.8 137.6,204.2 C138,204.7 139.5,205 140.8,205 C142.2,205 144.7,205.4 146.4,205.9 C148.1,206.4 151.5,207.4 154,208 C156.5,208.7 159.3,209.6 160.2,210.1 C161.2,210.6 162.9,211 163.9,211 C165,211 166.2,211.4 166.5,212 C166.8,212.5 168.2,213 169.6,213 C170.9,213 172,213.4 172,214 C172,214.5 173.1,215 174.4,215 C175.8,215 177.2,215.4 177.5,216 C177.8,216.5 179.2,217 180.5,217 C181.8,217 183.2,217.5 183.5,218.1 C183.9,218.7 184.8,218.9 185.5,218.6 C186.2,218.4 187.6,218.7 188.6,219.4 C189.7,220.1 191.2,220.7 192,220.8 C194.3,220.9 202.9,224 208.2,226.6 C210.9,227.9 213.6,229 214.2,229 C214.9,229 217.7,230.1 220.4,231.5 C224.9,233.7 228,233.9 228,232 C228,231.5 227.6,230.8 227,230.5 C225.3,229.4 225.9,225.7 228.3,223.2 C230.8,220.5 231.1,220.9 222,215.5 C219.2,213.8 215,211.3 212.7,209.9 C208.3,207.2 201.9,203.4 194.1,198.8 C191.6,197.3 187.6,195.2 185.3,194 C183,192.9 180.8,191.5 180.5,191 C180.2,190.5 178.2,189.3 176.2,188.3 C174.2,187.4 167,182.9 160.2,178.3 C153.4,173.7 147.3,170 146.5,170 C145.8,170 145,169.3 144.7,168.6 C144.4,167.8 142.8,166.4 141.1,165.6 C138.4,164.1 126.9,152.9 126.2,150.9 C125.5,149 128.4,150.1 132,153.2 C134.1,155 137.5,157.6 139.5,159 C141.5,160.4 144.1,162.5 145.3,163.7 C146.4,165 148.1,166 149.1,166 C150,166 151,166.7 151.4,167.5 C151.7,168.3 152.8,169 153.9,169 C155,169 156.4,169.9 157,171 C157.6,172.1 158.9,173 159.9,173 C160.9,173 162.5,173.9 163.5,175 C164.5,176.1 165.8,177 166.5,177 C167.2,177 168.5,177.9 169.5,179 C170.5,180.1 171.9,181 172.5,181 C173.2,181 175.5,182.2 177.6,183.7 C179.7,185.1 184.4,187.9 187.9,189.8 C191.5,191.6 195.8,194.2 197.4,195.5 C199.1,196.7 201.7,198 203.2,198.4 C204.6,198.7 207.1,200.1 208.7,201.4 C210.2,202.7 213.3,204.5 215.5,205.4 C217.7,206.3 220.4,207.9 221.5,209 C222.6,210 225.8,211.8 228.5,213 C234.4,215.5 240,220.6 240,223.4 C240,225.6 243.7,230 245.6,230 C247.2,230 251.3,234.9 252.9,238.7 C255.2,244.3 274,254.3 274,250 C274,249.4 272.3,246.2 270.2,242.7 C267.5,238.2 266,234 264.7,227.5 C262.3,215.4 260,208 258.6,208 C258,208.1 255.9,209.4 254,211 C248.4,215.9 245.5,215.1 235.4,206.3 C227,199 206.6,181.6 198,174.5 C189.2,167.3 179.5,159 163.9,145.4 C160.9,142.7 155.5,138 151.9,135 C140.9,125.7 132,114 136,114 C136.5,114 138.4,115.8 140.1,118 C142.9,121.4 153.7,130.6 170,143.5 C172.1,145.1 177.1,149.2 181,152.5 C190.2,160.1 195.8,164.8 206.2,173.2 C219.9,184.4 230.4,193.4 237.8,200.5 C243,205.6 243.9,205.8 246.5,203 C247.7,201.6 249,201.3 251.1,201.7 C254.2,202.3 259.9,198.7 259.9,196 C259.9,195.2 258.1,191.8 256,188.5 C253.8,185.2 250.9,180.4 249.5,177.7 C248.1,175.1 246.6,173 246.1,173 C245.6,173 244.9,171.7 244.5,170.1 C244.2,168.5 243,166.4 241.9,165.4 C240.9,164.5 240,163.3 240,162.7 C240,162.2 238.7,159.8 237,157.3 C235.4,154.9 234,152.5 234,152.1 C234,151.7 233.1,150.5 232,149.5 C230.9,148.5 230,147.3 230,146.9 C230,146.1 223.1,135.6 219.2,130.4 C218,128.8 216.7,127 216.3,126.5 C215.8,125.9 213.9,123.5 211.9,121 C207.6,115.6 205.6,112.1 206.4,111.2 C207.2,110.5 222,125 222,126.6 C222,127.2 223.1,128.7 224.5,130 C225.9,131.3 227,132.9 227,133.5 C227,134.2 227.9,135.5 229,136.5 C230.1,137.5 231,138.8 231,139.5 C231,140.2 231.9,141.5 233,142.5 C234.1,143.5 235,144.7 235,145.2 C235,145.8 235.9,147.4 237,148.8 C243.1,156.8 246,161.2 246,162.4 C246,163.1 246.7,164.3 247.6,165.1 C248.4,165.8 250.1,168.1 251.3,170.3 C255.8,178.3 256.6,179.6 258.5,182.5 C259.7,184.1 261.2,186.8 262,188.5 C264.3,193.4 269.1,198 271.9,198 C274.6,198.1 278,200.1 278,201.6 C278,202 276.8,203.6 275.4,205.1 C272.4,208.2 272.7,209 277.4,211.8 C280.1,213.4 281.1,213.6 281.9,212.6 C282.9,211.5 282.2,206.8 280.3,202 C280,201.2 279.6,199.8 279.5,199 C279.1,195.9 273.8,175.3 272,170 C271.1,167 269,160.4 267.6,155.5 C266.1,150.5 264.4,145.4 263.8,144 C263.2,142.6 262.7,140.9 262.9,140.3 C263,139.6 262.4,138 261.6,136.8 C260.9,135.5 259,130.9 257.5,126.5 C256.1,122.1 254.4,117.7 253.9,116.8 C253.4,115.8 253,113.8 253,112.4 C253,110.1 253.2,109.9 254.5,111 C255.4,111.7 256.7,113.9 257.6,115.9 C258.5,117.9 260.5,122.2 262.1,125.6 C263.7,128.9 265,132.2 265,132.9 C265,133.6 266.3,136.7 268,139.8 C269.6,142.9 272.2,149.5 273.7,154.5 C275.1,159.4 276.7,163.9 277.2,164.5 C277.6,165 278,166.9 278,168.6 C278,170.4 278.5,172.2 279,172.5 C279.6,172.8 280,174.6 280,176.5 C280,178.4 280.5,180.2 281,180.5 C281.6,180.8 282,182.9 282,185 C282,187.1 282.5,189.2 283,189.5 C283.6,189.8 284,191.6 284,193.5 C284,195.4 284.5,197.2 285,197.5 C285.6,197.9 285.8,198.9 285.6,199.8 C285.3,200.8 285.7,202.8 286.5,204.4 C287.3,205.9 288,208.1 288,209.1 C288,212.2 289.7,211.2 290.2,207.8 C290.9,203.3 290.4,190 289.1,179.5 C287,162.5 286.1,155.5 285,149 C284.4,145.4 283.7,139.8 283.4,136.5 C283.1,133.2 282.4,130 281.8,129.3 C281.2,128.6 281.1,126.9 281.4,125.5 C281.8,124.1 281.4,121.5 280.7,119.8 C279.4,116.6 279.2,113.4 280.4,112.3 C281.4,111.3 284.2,113 283.7,114.3 C283.4,115 283.8,116.4 284.5,117.3 C285.2,118.3 285.6,119.9 285.3,120.9 C285,122 285.3,123.8 286,125 C286.6,126.2 287.4,129.2 287.6,131.8 C287.9,134.3 288.5,136.9 289,137.6 C289.6,138.2 289.8,139.4 289.5,140.2 C289.2,141 289.6,143.6 290.4,146 C291.2,148.4 291.7,150.7 291.4,151.1 C291.2,151.5 291.4,154.5 292,157.7 C292.6,160.9 293,165.8 293,168.7 C292.9,171.5 293.4,174.1 294,174.5 C294.6,174.9 295,183.5 295,199.4 L295,223.7 L300.3,229.6 C303.2,232.8 305.9,236.2 306.3,237 C306.7,237.8 307.4,239.2 307.9,240 C308.4,240.8 309.4,243 310.1,244.8 C311.6,249 314.8,253 316.5,253 C319,253 319.4,249 317.1,246.6 C315.9,245.4 315,243 315,241.4 C315,239.8 313.4,235.3 311.4,231.5 L307.8,224.6 L308.4,199.1 C309.2,164.8 310,150.7 311.1,149.5 C311.6,149 312,145.6 312,141.9 C312,135 312.6,133.5 314.9,134.9 C315.8,135.5 316,138.6 315.6,147.6 C314.2,176 313.9,207.3 314.9,208.3 C316.5,209.9 317,208.8 317.1,202.6 C317.2,199.5 317.7,196.7 318.1,196.4 C318.6,196.1 319,193.9 319,191.5 C319,189.1 319.5,186.8 320,186.5 C320.6,186.2 321,183.9 321,181.5 C321,179.1 321.5,176.8 322,176.5 C322.6,176.2 323,174.8 323,173.5 C323,172.2 323.5,170.8 324,170.5 C324.6,170.2 325,168.8 325,167.5 C325,166.2 325.5,163.8 326.1,162.3 C326.7,160.8 327.6,158.6 328.1,157.5 C328.5,156.4 329.1,154.1 329.4,152.5 C331,142.5 333.4,133.5 335.6,128.3 C336.4,126.6 337,124.8 336.9,124.3 C336.4,122.3 338.5,115.9 341.9,109.2 C343,106.8 344,104 344,103 C344,101.9 344.5,100.8 345,100.5 C345.6,100.2 346,99 346,97.8 C346,96.7 346.8,94.6 347.9,93.2 C348.9,91.7 350.1,89.4 350.5,88 C350.9,86.6 352.2,84.4 353.4,83.2 L355.5,80.8 L355.8,83.3 C356,84.6 355.2,87.4 354.1,89.4 z M204.8,107.5 C206.1,110.3 204.9,110.8 202.6,108.4 C200.6,106.5 200.5,105 202.3,105 C203.1,105 204.2,106.1 204.8,107.5 z M316.5,126.9 C316.8,127.4 316.6,128.1 316,128.5 C315.5,128.8 315,128.4 315,127.6 C315,125.8 315.6,125.5 316.5,126.9 z M110.6,199.1 C111.6,200.8 109.3,202.7 107.9,201.3 C106.7,200.1 107.5,198 109,198 C109.5,198 110.2,198.5 110.6,199.1 z M310.1,294.1 C310.6,294.9 311.6,297.3 312.6,299.5 C313.5,301.7 314.6,304.4 315,305.5 C315.5,306.6 317.3,311.8 319,317 C320.8,322.2 322.5,326.9 323,327.5 C323.4,328 323.8,329.2 323.8,330 C323.9,330.8 325,336.9 326.4,343.5 C327.7,350.1 329.1,357.7 329.5,360.5 C330.3,366.6 331.6,375.3 332.9,384 C333.4,387.5 333.6,390.8 333.3,391.3 C333.1,391.7 333.3,392.7 334,393.4 C334.6,394.3 335,397.9 334.8,402.7 C334.6,408.8 334.2,410.5 333,410.5 C331.9,410.5 331.3,408.9 330.8,405 C330.4,402 329.6,396.8 329,393.5 C328.5,390.2 327.5,384.3 326.9,380.5 C325.6,371.2 324.3,363.2 323.5,359.5 C323.2,357.8 322.4,353.9 321.8,350.7 C321.2,347.5 320.3,344.7 319.9,344.4 C319.4,344.1 319,342.6 319,341 C319,339.4 318.6,337.1 318.1,335.8 C317.6,334.5 316.5,330.3 315.6,326.5 C313.8,318.5 310.9,311 309.7,311 C309.2,311 309.1,314.5 309.5,318.7 C310.2,328.6 311.4,365.6 311.3,377.5 C311.2,382.4 310.8,393 310.4,401 C309.7,412.8 309.2,415.5 308,415.5 C306.7,415.5 306.5,410.9 306.3,380.7 C306.2,360.8 305.7,345.2 305.1,344.2 C304.6,343.2 304.1,337.5 304.1,331.6 C304.1,325.3 303.7,320.3 303.1,319.7 C302.5,319.1 302,316.9 302,314.9 C302,312.8 301.5,310.8 300.9,310.4 C300.3,310.1 300,309 300.3,308.1 C300.5,307.2 300.3,303.6 299.9,300 C299.5,296.5 299.3,293.3 299.5,293 C300.3,291.8 309.4,292.7 310.1,294.1 z M296.8,297.4 C297,298.4 296.7,300.2 296.2,301.4 C295.6,302.5 294.9,306.9 294.6,311 C293.9,319.2 292.7,327.3 291.1,333.5 C287.3,348.3 286,354.1 284.9,360 C284.4,363 283.5,366.3 283,367.2 C282.4,368.2 282,370.3 282,371.9 C282,373.6 281.6,375.1 281.1,375.4 C280.6,375.7 280,377.4 279.7,379.2 C279.4,381 278.6,384.5 278,387 C277.4,389.5 276.6,393 276.3,394.8 C276,396.6 275.4,398.3 274.9,398.6 C274.4,398.9 274,400.1 274,401.2 C274,403.5 272.3,409.3 270.9,412.2 C270.4,413.2 270,415.1 270,416.4 C270,417.8 269.6,419.1 269.1,419.4 C268.6,419.8 267.9,422.3 267.5,425 C267.1,427.7 266.4,430.2 265.9,430.6 C265.4,430.9 265,432.4 265,433.9 C265,436.7 261.6,440.9 260.3,439.7 C259.2,438.6 264.4,418.2 267.1,412.8 C267.6,411.8 268,409.9 268,408.6 C268,407.2 268.4,405.9 268.9,405.6 C269.4,405.3 270,403.8 270.3,402.3 C270.6,400.7 271.3,397.7 271.9,395.5 C272.5,393.3 273.4,389.6 274,387.2 C274.5,384.9 275.5,381.1 276.1,378.7 C276.7,376.4 277.3,373.1 277.6,371.5 C278.8,362.9 279.4,360.3 280.7,358.3 C281.5,357.1 281.9,355.6 281.5,355 C281.1,354.4 281.6,352.8 282.5,351.4 C283.4,350 283.9,348.1 283.6,347.3 C283.2,346.4 283.6,344.7 284.5,343.4 C285.3,342.1 285.7,340.4 285.4,339.5 C285,338.7 285.2,337.4 285.8,336.7 C286.3,336.1 287.1,333.7 287.4,331.5 C288.4,325.7 289.9,315.5 291,308 C292.6,296.7 293.1,294.9 294.9,295.2 C295.7,295.4 296.6,296.4 296.8,297.4 z M175,346 C175,346.5 174.8,347 174.6,347 C174.3,347 173.8,346.5 173.5,346 C173.2,345.4 173.4,345 173.9,345 C174.5,345 175,345.4 175,346 z" fill="#73AC13"/>
      <path d="M267.4,212.4 C267.1,213.2 267.3,214.7 267.9,215.9 C268.5,217 269,219.2 269,220.7 C269,222.3 271.9,229.2 275.4,236 C281.2,247.3 282.1,248.5 284.7,248.8 C286.6,249 288.2,248.4 289.5,247 C291.2,245.1 291.2,244.9 289.7,243.2 C288.7,242.2 288,240.4 288,239.3 C288,238.2 285.5,234.6 282.5,231.3 C279.5,227.9 277,224.5 277,223.7 C277,223 276.1,221.5 274.9,220.4 C273.7,219.4 271.9,216.8 270.9,214.7 C268.8,210.7 268.2,210.3 267.4,212.4 z" fill="#73AC13"/>
      <path d="M210.4,235.2 C209.6,236.4 214.6,241 216.6,241 C217.2,241 218.3,241.6 218.9,242.4 C219.6,243.2 221.6,244.2 223.3,244.5 C225.1,244.9 228,246.1 229.8,247.1 C231.6,248.1 233.9,249 234.9,249 C235.8,249 237,249.4 237.5,249.8 C238.1,250.3 241.2,251.2 244.5,251.9 C247.8,252.6 251.5,253.6 252.8,254.1 C255.8,255.3 256,255.2 256,253.7 C256,251.7 253,249.3 249.5,248.4 C247.9,248 244.7,246.7 242.5,245.4 C240.2,244.2 236.7,242.9 234.7,242.5 C232.7,242.1 230.7,241.4 230.4,240.9 C230.1,240.4 229.1,240 228.1,240 C227.1,240 223,238.6 219,237 C210.6,233.5 211.3,233.7 210.4,235.2 z" fill="#73AC13"/>
      <path d="M295.5,254 C293,256.8 294.6,258.5 298.4,257 C300.2,256.4 301,255.4 300.8,254.3 C300.3,251.7 297.7,251.6 295.5,254 z" fill="#73AC13"/>
    </g>
  </g>
</svg>
