<?xml version="1.0" standalone="no"?>
<!DOCTYPE svg PUBLIC "-//W3C//DTD SVG 20010904//EN"
 "http://www.w3.org/TR/2001/REC-SVG-20010904/DTD/svg10.dtd">
<svg version="1.0" xmlns="http://www.w3.org/2000/svg"
 width="1239.000000pt" height="751.000000pt" viewBox="0 0 1239.000000 751.000000"
 preserveAspectRatio="xMidYMid meet">
<metadata>
Created by potrace 1.16, written by Peter Selinger 2001-2019
</metadata>
<g transform="translate(0.000000,751.000000) scale(0.100000,-0.100000)"
fill="#000000" stroke="none">
<path d="M4191 7369 c-45 -110 -56 -149 -68 -247 -14 -106 -14 -130 1 -262 26
-222 20 -207 73 -215 94 -14 30 -14 -165 0 l-201 15 -94 -50 c-52 -27 -96 -50
-99 -50 -3 0 -24 23 -47 50 -36 42 -46 65 -63 138 -15 65 -35 112 -79 187
l-58 100 -127 28 c-70 15 -128 26 -129 25 -282 -425 -371 -538 -504 -645 -186
-150 -339 -337 -469 -573 -84 -152 -160 -230 -623 -637 -60 -53 -174 -106
-255 -119 l-39 -6 -111 124 c-66 74 -138 167 -179 233 -38 61 -69 111 -70 113
-2 1 -54 14 -117 27 -113 24 -118 24 -237 10 l-123 -14 -91 -83 c-138 -123
-193 -177 -250 -243 l-52 -60 45 36 c207 164 289 233 314 264 58 74 154 94
242 50 70 -35 95 -78 102 -168 2 -39 11 -85 19 -100 8 -16 13 -43 12 -60 -6
-86 4 -91 201 -97 134 -5 161 -9 197 -28 48 -25 100 -84 108 -124 8 -33 47
-57 139 -83 69 -20 186 -17 252 7 23 8 96 61 170 124 144 121 194 188 254 338
26 68 41 89 108 155 43 42 93 99 112 126 18 28 72 95 118 150 47 55 91 107 99
116 7 8 17 40 23 70 18 93 57 154 174 273 60 61 134 147 165 191 75 108 125
155 201 193 85 43 97 42 110 -10 22 -84 53 -174 85 -245 l33 -72 -204 -196
c-267 -257 -347 -365 -418 -564 -32 -90 -33 -91 -90 -126 -180 -108 -307 -247
-391 -428 -19 -40 -101 -166 -183 -282 -118 -167 -159 -217 -201 -246 -106
-73 -164 -148 -201 -259 -25 -75 -25 -87 15 -570 l28 -336 -23 -145 -23 -146
-28 10 c-20 8 -80 6 -224 -7 -187 -17 -199 -20 -241 -48 -24 -16 -65 -36 -91
-45 -26 -9 -61 -27 -76 -40 -16 -12 -37 -23 -48 -23 -65 0 -109 -40 -338 -309
-108 -127 -129 -156 -121 -171 13 -24 15 -73 6 -135 -7 -43 -5 -54 13 -76 24
-31 60 -40 105 -28 56 16 69 31 77 97 15 129 153 348 286 453 88 70 278 198
317 214 52 22 113 18 197 -11 41 -14 89 -23 107 -22 37 5 39 -2 22 -94 -20
-107 -58 -635 -49 -682 12 -64 51 -134 101 -183 48 -46 136 -95 153 -85 54 33
385 307 381 316 -97 220 -118 283 -141 436 -16 101 -20 202 -7 184 4 -6 32
-22 62 -36 30 -14 97 -50 148 -80 l94 -54 109 -198 c87 -159 118 -226 154
-338 l46 -140 -14 -110 c-13 -107 -13 -112 12 -219 14 -60 31 -109 36 -109 6
0 41 118 79 263 l68 263 -229 389 c-127 215 -241 410 -254 435 -36 66 -95 103
-172 108 -42 3 -75 -1 -100 -11 -44 -19 -44 -20 -22 84 42 200 117 360 236
504 87 105 139 143 234 175 95 32 130 73 137 159 l3 33 252 113 c138 62 268
126 290 143 53 42 129 79 204 98 77 20 221 15 289 -11 25 -9 206 -50 403 -91
197 -40 392 -83 434 -94 86 -23 131 -25 186 -9 22 6 41 9 43 6 2 -2 -18 -46
-45 -98 -44 -84 -51 -106 -67 -213 l-17 -120 39 -119 39 -119 103 -75 c91 -67
116 -79 215 -110 62 -19 115 -38 120 -42 4 -4 -8 -48 -26 -98 -30 -80 -47
-107 -154 -239 -67 -82 -154 -178 -194 -214 -40 -36 -131 -130 -202 -210 -168
-190 -276 -369 -319 -530 -27 -100 -68 -322 -68 -366 0 -14 36 -50 118 -117
l117 -96 29 -108 c16 -59 33 -121 38 -138 7 -26 26 -39 143 -100 l135 -70 0
-121 c0 -119 11 -171 75 -342 3 -9 34 2 105 38 55 27 104 50 109 50 5 0 48
-61 96 -135 l87 -134 -31 -93 c-36 -107 -38 -125 -12 -83 10 17 65 105 123
196 l106 166 -118 169 c-115 164 -121 171 -214 236 -53 37 -127 80 -166 96
-135 58 -248 156 -316 278 -40 72 -74 196 -74 271 0 52 4 59 72 151 81 110 77
93 103 367 l18 180 101 110 c56 61 179 213 275 338 l173 229 41 262 41 263
-84 164 c-74 147 -92 174 -168 254 -77 82 -129 147 -220 276 l-33 45 39 41
c22 22 48 62 58 87 10 25 21 46 24 46 3 0 33 -26 68 -58 62 -56 63 -58 97
-171 33 -112 35 -114 107 -190 107 -112 287 -215 476 -271 145 -44 174 -57
105 -45 -24 4 -43 4 -43 1 0 -3 49 -95 109 -203 l110 -198 129 -97 c165 -123
348 -222 530 -288 l143 -51 122 11 c67 5 143 13 168 16 l47 6 111 -186 112
-186 -26 -179 c-14 -99 -36 -281 -49 -405 -23 -218 -23 -231 -9 -418 11 -145
24 -234 51 -358 l37 -165 130 -22 c360 -63 877 -196 1062 -272 l122 -51 158
11 c87 6 163 12 169 14 8 2 6 27 -5 85 l-15 82 -71 35 c-38 19 -131 68 -205
108 l-135 73 -118 -21 -119 -21 -240 80 -240 79 -80 115 c-83 119 -121 202
-198 434 l-33 99 7 216 c4 128 2 300 -4 424 -10 186 -14 216 -41 294 l-29 88
22 86 22 86 -45 109 -44 109 -105 57 c-152 83 -287 107 -425 74 -41 -9 -73 -8
-180 6 -94 13 -160 17 -236 12 l-107 -6 -65 109 c-36 59 -62 109 -57 111 5 2
76 -10 157 -27 494 -102 555 -111 839 -122 148 -6 269 -11 270 -12 0 -1 27
-49 60 -106 42 -76 99 -153 204 -276 l146 -170 230 -82 229 -82 170 -6 c111
-4 254 -1 415 9 135 8 315 18 401 22 l156 7 142 -38 141 -38 92 -146 c50 -80
156 -236 234 -346 99 -139 158 -233 192 -306 27 -58 118 -219 201 -357 l152
-251 55 -20 c29 -12 79 -30 110 -42 l56 -21 151 55 c84 31 157 57 163 59 6 2
80 -58 163 -132 130 -114 171 -144 272 -197 77 -41 131 -63 152 -63 17 1 91 9
164 19 116 17 138 23 190 54 32 20 82 45 110 56 l53 21 14 -28 15 -27 1 28 c0
15 -5 27 -13 27 -7 0 -33 28 -57 62 -46 62 -137 146 -190 173 -23 12 -73 15
-244 15 l-214 0 -308 74 c-169 41 -310 78 -314 83 -4 4 -15 52 -24 105 l-18
97 -146 149 c-81 82 -175 174 -209 206 -34 31 -93 101 -130 154 -37 53 -103
143 -146 200 -44 57 -107 154 -141 217 -41 77 -90 149 -151 220 -83 98 -97
109 -180 152 -49 25 -128 72 -175 103 l-85 58 -190 7 c-319 10 -559 32 -676
59 -58 14 -184 35 -280 47 -158 20 -185 26 -294 69 -66 26 -173 64 -237 84
-65 21 -118 38 -118 40 0 2 109 1 243 -2 212 -4 272 -1 482 21 194 21 314 27
630 32 l390 7 340 70 340 70 115 60 c63 33 120 64 125 68 6 5 45 59 87 122
l76 113 18 266 18 267 -38 178 c-35 167 -46 201 -171 509 -129 322 -136 335
-245 504 -62 96 -166 264 -231 373 -127 214 -212 322 -473 601 l-129 138 -266
133 c-146 73 -390 189 -541 259 l-275 125 -330 33 -330 32 -280 -12 c-154 -6
-458 -23 -675 -37 l-395 -26 -512 49 -512 48 -203 -15 -203 -16 -141 -71
c-110 -56 -149 -81 -177 -115 l-36 -43 -11 30 c-38 98 -47 277 -19 378 6 22 9
41 7 43 -4 4 -199 34 -220 34 -7 0 -37 -59 -67 -131z"/>
<path d="M12307 803 c30 -64 38 -95 44 -168 4 -49 8 -99 9 -110 4 -33 19 56
19 112 1 62 -18 160 -28 144 -4 -6 -19 13 -34 44 -15 30 -31 55 -37 55 -5 0 7
-35 27 -77z"/>
<path d="M8960 478 c1 -22 37 -189 43 -194 19 -20 188 -111 192 -104 3 5 -37
34 -90 65 -61 36 -95 62 -95 73 0 9 -3 28 -5 42 -3 14 2 5 12 -20 24 -66 26
-36 4 61 -18 80 -19 82 -21 39 l-2 -45 -10 48 c-6 26 -14 47 -19 47 -5 0 -9
-6 -9 -12z"/>
</g>
</svg>
