<?xml version="1.0" encoding="UTF-8"?>
<!DOCTYPE svg PUBLIC "-//W3C//DTD SVG 1.1//EN" "http://www.w3.org/Graphics/SVG/1.1/DTD/svg11.dtd">
<svg version="1.1" xmlns="http://www.w3.org/2000/svg" xmlns:xlink="http://www.w3.org/1999/xlink" x="0" y="0" width="1239" height="751" viewBox="0, 0, 1239, 751">
  <g id="Layer_1">
    <g>
      <path d="M419.1,14.1 C414.6,25.1 413.5,29 412.3,38.8 C410.9,49.4 410.9,51.8 412.4,65 C415,87.2 414.4,85.7 419.7,86.5 C429.1,87.9 422.7,87.9 403.2,86.5 L383.1,85 L373.7,90 C368.5,92.7 364.1,95 363.8,95 C363.5,95 361.4,92.7 359.1,90 C355.5,85.8 354.5,83.5 352.8,76.2 C351.3,69.7 349.3,65 344.9,57.5 L339.1,47.5 L326.4,44.7 C319.4,43.2 313.6,42.1 313.5,42.2 C285.3,84.7 276.4,96 263.1,106.7 C244.5,121.7 229.2,140.4 216.2,164 C207.8,179.2 200.2,187 153.9,227.7 C147.9,233 136.5,238.3 128.4,239.6 L124.5,240.2 L113.4,227.8 C106.8,220.4 99.6,211.1 95.5,204.5 C91.7,198.4 88.6,193.4 88.5,193.2 C88.3,193.1 83.1,191.8 76.8,190.5 C65.5,188.1 65,188.1 53.1,189.5 L40.8,190.9 L31.7,199.2 C17.9,211.5 12.4,216.9 6.7,223.5 L1.5,229.5 L6,225.9 C26.7,209.5 34.9,202.6 37.4,199.5 C43.2,192.1 52.8,190.1 61.6,194.5 C68.6,198 71.1,202.3 71.8,211.3 C72,215.2 72.9,219.8 73.7,221.3 C74.5,222.9 75,225.6 74.9,227.3 C74.3,235.9 75.3,236.4 95,237 C108.4,237.5 111.1,237.9 114.7,239.8 C119.5,242.3 124.7,248.2 125.5,252.2 C126.3,255.5 130.2,257.9 139.4,260.5 C146.3,262.5 158,262.2 164.6,259.8 C166.9,259 174.2,253.7 181.6,247.4 C196,235.3 201,228.6 207,213.6 C209.6,206.8 211.1,204.7 217.8,198.1 C222.1,193.9 227.1,188.2 229,185.5 C230.8,182.7 236.2,176 240.8,170.5 C245.5,165 249.9,159.8 250.7,158.9 C251.4,158.1 252.4,154.9 253,151.9 C254.8,142.6 258.7,136.5 270.4,124.6 C276.4,118.5 283.8,109.9 286.9,105.5 C294.4,94.7 299.4,90 307,86.2 C315.5,81.9 316.7,82 318,87.2 C320.2,95.6 323.3,104.6 326.5,111.7 L329.8,118.9 L309.4,138.5 C282.7,164.2 274.7,175 267.6,194.9 C264.4,203.9 264.3,204 258.6,207.5 C240.6,218.3 227.9,232.2 219.5,250.3 C217.6,254.3 209.4,266.9 201.2,278.5 C189.4,295.2 185.3,300.2 181.1,303.1 C170.5,310.4 164.7,317.9 161,329 C158.5,336.5 158.5,337.7 162.5,386 L165.3,419.6 L163,434.1 L160.7,448.7 L157.9,447.7 C155.9,446.9 149.9,447.1 135.5,448.4 C116.8,450.1 115.6,450.4 111.4,453.2 C109,454.8 104.9,456.8 102.3,457.7 C99.7,458.6 96.2,460.4 94.7,461.7 C93.1,462.9 91,464 89.9,464 C83.4,464 79,468 56.1,494.9 C45.3,507.6 43.2,510.5 44,512 C45.3,514.4 45.5,519.3 44.6,525.5 C43.9,529.8 44.1,530.9 45.9,533.1 C48.3,536.2 51.9,537.1 56.4,535.9 C62,534.3 63.3,532.8 64.1,526.2 C65.6,513.3 79.4,491.4 92.7,480.9 C101.5,473.9 120.5,461.1 124.4,459.5 C129.6,457.3 135.7,457.7 144.1,460.6 C148.2,462 153,462.9 154.8,462.8 C158.5,462.3 158.7,463 157,472.2 C155,482.9 151.2,535.7 152.1,540.4 C153.3,546.8 157.2,553.8 162.2,558.7 C167,563.3 175.8,568.2 177.5,567.2 C182.9,563.9 216,536.5 215.6,535.6 C205.9,513.6 203.8,507.3 201.5,492 C199.9,481.9 199.5,471.8 200.8,473.6 C201.2,474.2 204,475.8 207,477.2 C210,478.6 216.7,482.2 221.8,485.2 L231.2,490.6 L242.1,510.4 C250.8,526.3 253.9,533 257.5,544.2 L262.1,558.2 L260.7,569.2 C259.4,579.9 259.4,580.4 261.9,591.1 C263.3,597.1 265,602 265.5,602 C266.1,602 269.6,590.2 273.4,575.7 L280.2,549.4 L257.3,510.5 C244.6,489 233.2,469.5 231.9,467 C228.3,460.4 222.4,456.7 214.7,456.2 C210.5,455.9 207.2,456.3 204.7,457.3 C200.3,459.2 200.3,459.3 202.5,448.9 C206.7,428.9 214.2,412.9 226.1,398.5 C234.8,388 240,384.2 249.5,381 C259,377.8 262.5,373.7 263.2,365.1 L263.5,361.8 L288.7,350.5 C302.5,344.3 315.5,337.9 317.7,336.2 C323,332 330.6,328.3 338.1,326.4 C345.8,324.4 360.2,324.9 367,327.5 C369.5,328.4 387.6,332.5 407.3,336.6 C427,340.6 446.5,344.9 450.7,346 C459.3,348.3 463.8,348.5 469.3,346.9 C471.5,346.3 473.4,346 473.6,346.3 C473.8,346.5 471.8,350.9 469.1,356.1 C464.7,364.5 464,366.7 462.4,377.4 L460.7,389.4 L464.6,401.3 L468.5,413.2 L478.8,420.7 C487.9,427.4 490.4,428.6 500.3,431.7 C506.5,433.6 511.8,435.5 512.3,435.9 C512.7,436.3 511.5,440.7 509.7,445.7 C506.7,453.7 505,456.4 494.3,469.6 C487.6,477.8 478.9,487.4 474.9,491 C470.9,494.6 461.8,504 454.7,512 C437.9,531 427.1,548.9 422.8,565 C420.1,575 416,597.2 416,601.6 C416,603 419.6,606.6 427.8,613.3 L439.5,622.9 L442.4,633.7 C444,639.6 445.7,645.8 446.2,647.5 C446.9,650.1 448.8,651.4 460.5,657.5 L474,664.5 L474,676.6 C474,688.5 475.1,693.7 481.5,710.8 C481.8,711.7 484.9,710.6 492,707 C497.5,704.3 502.4,702 502.9,702 C503.4,702 507.7,708.1 512.5,715.5 L521.2,728.9 L518.1,738.2 C514.5,748.9 514.3,750.7 516.9,746.5 C517.9,744.8 523.4,736 529.2,726.9 L539.8,710.3 L528,693.4 C516.5,677 515.9,676.3 506.6,669.8 C501.3,666.1 493.9,661.8 490,660.2 C476.5,654.4 465.2,644.6 458.4,632.4 C454.4,625.2 451,612.8 451,605.3 C451,600.1 451.4,599.4 458.2,590.2 C466.3,579.2 465.9,580.9 468.5,553.5 L470.3,535.5 L480.4,524.5 C486,518.4 498.3,503.2 507.9,490.7 L525.2,467.8 L529.3,441.6 L533.4,415.3 L525,398.9 C517.6,384.2 515.8,381.5 508.2,373.5 C500.5,365.3 495.3,358.8 486.2,345.9 L482.9,341.4 L486.8,337.3 C489,335.1 491.6,331.1 492.6,328.6 C493.6,326.1 494.7,324 495,324 C495.3,324 498.3,326.6 501.8,329.8 C508,335.4 508.1,335.6 511.5,346.9 C514.8,358.1 515,358.3 522.2,365.9 C532.9,377.1 550.9,387.4 569.8,393 C584.3,397.4 587.2,398.7 580.3,397.5 C577.9,397.1 576,397.1 576,397.4 C576,397.7 580.9,406.9 586.9,417.7 L597.9,437.5 L610.8,447.2 C627.3,459.5 645.6,469.4 663.8,476 L678.1,481.1 L690.3,480 C697,479.5 704.6,478.7 707.1,478.4 L711.8,477.8 L722.9,496.4 L734.1,515 L731.5,532.9 C730.1,542.8 727.9,561 726.6,573.4 C724.3,595.2 724.3,596.5 725.7,615.2 C726.8,629.7 728.1,638.6 730.8,651 L734.5,667.5 L747.5,669.7 C783.5,676 835.2,689.3 853.7,696.9 L865.9,702 L881.7,700.9 C890.4,700.3 898,699.7 898.6,699.5 C899.4,699.3 899.2,696.8 898.1,691 L896.6,682.8 L889.5,679.3 C885.7,677.4 876.4,672.5 869,668.5 L855.5,661.2 L843.7,663.3 L831.8,665.4 L807.8,657.4 L783.8,649.5 L775.8,638 C767.5,626.1 763.7,617.8 756,594.6 L752.7,584.7 L753.4,563.1 C753.8,550.3 753.6,533.1 753,520.7 C752,502.1 751.6,499.1 748.9,491.3 L746,482.5 L748.2,473.9 L750.4,465.3 L745.9,454.4 L741.5,443.5 L731,437.8 C715.8,429.5 702.3,427.1 688.5,430.4 C684.4,431.3 681.2,431.2 670.5,429.8 C661.1,428.5 654.5,428.1 646.9,428.6 L636.2,429.2 L629.7,418.3 C626.1,412.4 623.5,407.4 624,407.2 C624.5,407 631.6,408.2 639.7,409.9 C689.1,420.1 695.2,421 723.6,422.1 C738.4,422.7 750.5,423.2 750.6,423.3 C750.6,423.4 753.3,428.2 756.6,433.9 C760.8,441.5 766.5,449.2 777,461.5 L791.6,478.5 L814.6,486.7 L837.5,494.9 L854.5,495.5 C865.6,495.9 879.9,495.6 896,494.6 C909.5,493.8 927.5,492.8 936.1,492.4 L951.7,491.7 L965.9,495.5 L980,499.3 L989.2,513.9 C994.2,521.9 1004.8,537.5 1012.6,548.5 C1022.5,562.4 1028.4,571.8 1031.8,579.1 C1034.5,584.9 1043.6,601 1051.9,614.8 L1067.1,639.9 L1072.6,641.9 C1075.5,643.1 1080.5,644.9 1083.6,646.1 L1089.2,648.2 L1104.3,642.7 C1112.7,639.6 1120,637 1120.6,636.8 C1121.2,636.6 1128.6,642.6 1136.9,650 C1149.9,661.4 1154,664.4 1164.1,669.7 C1171.8,673.8 1177.2,676 1179.3,676 C1181,675.9 1188.4,675.1 1195.7,674.1 C1207.3,672.4 1209.5,671.8 1214.7,668.7 C1217.9,666.7 1222.9,664.2 1225.7,663.1 L1231,661 L1232.4,663.8 L1233.9,666.5 L1234,663.7 C1234,662.2 1233.5,661 1232.7,661 C1232,661 1229.4,658.2 1227,654.8 C1222.4,648.6 1213.3,640.2 1208,637.5 C1205.7,636.3 1200.7,636 1183.6,636 L1162.2,636 L1131.4,628.6 C1114.5,624.5 1100.4,620.8 1100,620.3 C1099.6,619.9 1098.5,615.1 1097.6,609.8 L1095.8,600.1 L1081.2,585.2 C1073.1,577 1063.7,567.8 1060.3,564.6 C1056.9,561.5 1051,554.5 1047.3,549.2 C1043.6,543.9 1037,534.9 1032.7,529.2 C1028.3,523.5 1022,513.8 1018.6,507.5 C1014.5,499.8 1009.6,492.6 1003.5,485.5 C995.2,475.7 993.8,474.6 985.5,470.3 C980.6,467.8 972.7,463.1 968,460 L959.5,454.2 L940.5,453.5 C908.6,452.5 884.6,450.3 872.9,447.6 C867.1,446.2 854.5,444.1 844.9,442.9 C829.1,440.9 826.4,440.3 815.5,436 C808.9,433.4 798.2,429.6 791.8,427.6 C785.3,425.5 780,423.8 780,423.6 C780,423.4 790.9,423.5 804.3,423.8 C825.5,424.2 831.5,423.9 852.5,421.7 C871.9,419.6 883.9,419 915.5,418.5 L954.5,417.8 L988.5,410.8 L1022.5,403.8 L1034,397.8 C1040.3,394.5 1046,391.4 1046.5,391 C1047.1,390.5 1051,385.1 1055.2,378.8 L1062.8,367.5 L1064.6,340.9 L1066.4,314.2 L1062.6,296.4 C1059.1,279.7 1058,276.3 1045.5,245.5 C1032.6,213.3 1031.9,212 1021,195.1 C1014.8,185.5 1004.4,168.7 997.9,157.8 C985.2,136.4 976.7,125.6 950.6,97.7 L937.7,83.9 L911.1,70.6 C896.5,63.3 872.1,51.7 857,44.7 L829.5,32.2 L796.5,28.9 L763.5,25.7 L735.5,26.9 C720.1,27.5 689.7,29.2 668,30.6 L628.5,33.2 L577.3,28.3 L526.1,23.5 L505.8,25 L485.5,26.6 L471.4,33.7 C460.4,39.3 456.5,41.8 453.7,45.2 L450.1,49.5 L449,46.5 C445.2,36.7 444.3,18.8 447.1,8.7 C447.7,6.5 448,4.6 447.8,4.4 C447.4,4 427.9,1 425.8,1 C425.1,1 422.1,6.9 419.1,14.1 z" fill="#1E72FF"/>
      <path d="M1230.7,670.7 C1233.7,677.1 1234.5,680.2 1235.1,687.5 C1235.5,692.4 1235.9,697.4 1236,698.5 C1236.4,701.8 1237.9,692.9 1237.9,687.3 C1238,681.1 1236.1,671.3 1235.1,672.9 C1234.7,673.5 1233.2,671.6 1231.7,668.5 C1230.2,665.5 1228.6,663 1228,663 C1227.5,663 1228.7,666.5 1230.7,670.7 z" fill="#1E72FF"/>
      <path d="M896,703.2 C896.1,705.4 899.7,722.1 900.3,722.6 C902.2,724.6 919.1,733.7 919.5,733 C919.8,732.5 915.8,729.6 910.5,726.5 C904.4,722.9 901,720.3 901,719.2 C901,718.3 900.7,716.4 900.5,715 C900.2,713.6 900.7,714.5 901.7,717 C904.1,723.6 904.3,720.6 902.1,710.9 C900.3,702.9 900.2,702.7 900,707 L899.8,711.5 L898.8,706.7 C898.2,704.1 897.4,702 896.9,702 C896.4,702 896,702.6 896,703.2 z" fill="#1E72FF"/>
    </g>
  </g>
</svg>
